<svg width="96" height="96" viewBox="0 0 96 96" fill="none" xmlns="http://www.w3.org/2000/svg">
<path d="M9.2088 49.2384C8.5464 49.2384 8.0088 48.7416 8.0088 48.0816V48C8.0088 43.8072 8.6544 39.6768 9.9288 35.724C10.1328 35.0928 10.8096 34.752 11.4384 34.9488C12.0696 35.1528 12.4152 35.8296 12.2136 36.4584C11.016 40.1736 10.4088 44.0568 10.4088 48C10.4088 48.66 9.8736 49.2384 9.2088 49.2384ZM59.6496 83.7504C55.9104 84.9648 52.0056 85.5864 48.0432 85.5912C47.3808 85.5912 46.8432 86.1336 46.8432 86.7912C46.8432 87.4488 47.3808 87.9912 48.0432 87.9912C52.2576 87.9864 56.4168 87.3288 60.3936 86.0352C61.0248 85.8336 61.3656 85.1544 61.1592 84.5232C60.9552 83.8944 60.276 83.5464 59.6496 83.7504ZM12.2592 59.6832C12.0552 59.052 11.3856 58.7088 10.7472 58.9152C10.1184 59.1192 9.7728 59.7984 9.9792 60.4272C11.28 64.4112 13.1976 68.1576 15.6816 71.5608C15.9168 71.8848 16.2816 72.0528 16.6512 72.0528C16.896 72.0528 17.1456 71.9808 17.3568 71.82C17.892 71.4288 18.0096 70.6776 17.6184 70.1448C15.288 66.948 13.4832 63.4272 12.2592 59.6832ZM59.5056 12.2016C63.2568 13.4064 66.7848 15.192 69.9936 17.5104C70.2072 17.664 70.452 17.7384 70.6944 17.7384C71.0664 17.7384 71.4336 17.5656 71.6664 17.2416C72.0552 16.704 71.9328 15.9528 71.4 15.5664C67.9872 13.0992 64.2336 11.1984 60.24 9.9168C59.6088 9.7176 58.9368 10.0632 58.7304 10.692C58.5288 11.3232 58.8744 12 59.5056 12.2016ZM16.56 26.472C16.932 26.472 17.2992 26.2992 17.532 25.9752C19.848 22.776 22.6368 19.9728 25.8264 17.64C26.3616 17.2488 26.4768 16.4976 26.0856 15.9624C25.6968 15.4272 24.9456 15.312 24.408 15.7032C21.0168 18.1824 18.0504 21.1656 15.588 24.5664C15.1992 25.104 15.3192 25.8528 15.8568 26.2416C16.0704 26.4 16.3176 26.472 16.56 26.472ZM35.9088 12.3312C36.0312 12.3312 36.1584 12.312 36.2832 12.2712C40.0176 11.0472 43.9224 10.4208 47.8872 10.4112C48.5472 10.4088 49.0872 9.8712 49.0848 9.2088C49.0824 8.5488 48.5424 8.0112 47.8848 8.0112H47.8824C43.6656 8.0232 39.5112 8.6904 35.5368 9.9912C34.908 10.1976 34.5648 10.8744 34.7712 11.5056C34.9344 12.0096 35.4024 12.3312 35.9088 12.3312ZM36.4224 83.7744C32.6736 82.56 29.148 80.7696 25.944 78.444C25.4088 78.0504 24.6552 78.1752 24.2688 78.7056C23.88 79.248 24 79.9968 24.5352 80.3856C27.9432 82.8552 31.6944 84.7632 35.6832 86.052C35.8056 86.0952 35.9304 86.1072 36.0528 86.1072C36.5592 86.1072 37.0296 85.7832 37.1952 85.2768C37.3992 84.6552 37.0536 83.9784 36.4224 83.7744ZM78.4224 70.0848C76.0992 73.2768 73.3032 76.0752 70.1112 78.4008C69.576 78.792 69.4608 79.5432 69.8496 80.0784C70.0872 80.4 70.4496 80.5728 70.8192 80.5728C71.064 80.5728 71.3112 80.4984 71.5248 80.3424C74.9208 77.868 77.892 74.892 80.364 71.4912C80.7576 70.9512 80.6352 70.2048 80.1048 69.816C79.56 69.4272 78.8112 69.5496 78.4224 70.0848ZM86.7912 46.7232C86.1288 46.7232 85.5912 47.3352 85.5912 48C85.5912 51.9648 84.9768 55.8744 83.76 59.6136C83.5584 60.2448 83.904 60.9192 84.5328 61.1256C84.6552 61.1688 84.78 61.1832 84.8976 61.1832C85.404 61.1832 85.8744 60.8616 86.0424 60.3504C87.336 56.376 87.9912 52.2144 87.9912 48V47.8464C87.9912 47.184 87.4536 46.7232 86.7912 46.7232ZM83.7168 36.2472C83.8824 36.7512 84.3528 37.0728 84.8592 37.0728C84.9864 37.0728 85.1088 37.0536 85.2336 37.0128C85.8624 36.8064 86.2032 36.1272 85.9968 35.4984C84.6864 31.5144 82.7568 27.7728 80.268 24.3792C79.8744 23.844 79.1208 23.7288 78.5928 24.1224C78.06 24.516 77.9424 25.2648 78.3384 25.8C80.676 28.9872 82.4856 32.5032 83.7168 36.2472ZM96 48C96 74.4648 74.4648 96 48 96C21.5328 96 0 74.4648 0 48C0 21.5328 21.5328 0 48 0C74.4648 0 96 21.5328 96 48ZM91.2 48C91.2 24.18 71.82 4.8 48 4.8C24.18 4.8 4.8 24.18 4.8 48C4.8 71.82 24.18 91.2 48 91.2C71.82 91.2 91.2 71.82 91.2 48ZM52.0464 49.9632C51.2448 49.6584 50.0208 49.5048 48.3792 49.5048H44.628V55.7784C44.6424 56.6664 44.676 57.1848 44.7312 57.336C44.8008 57.5256 44.9136 57.6648 45.0744 57.7392C45.2328 57.8112 45.6648 57.8568 46.368 57.8568H48.48C49.7088 57.8568 50.7288 57.7392 51.5328 57.5064C52.344 57.2808 53.0328 56.8056 53.5944 56.0832C54.156 55.3608 54.444 54.4992 54.444 53.4864C54.444 52.6296 54.2424 51.9024 53.844 51.3024C53.448 50.7192 52.848 50.268 52.0464 49.9632ZM82.6464 48C82.6464 67.1352 67.1352 82.6464 48 82.6464C28.8672 82.6464 13.356 67.1352 13.356 48C13.356 28.8672 28.8672 13.356 48 13.356C67.1352 13.356 82.6464 28.8672 82.6464 48ZM61.9728 54.2616C61.9728 52.9752 61.668 51.8112 61.0584 50.7648C60.4488 49.7136 59.6184 48.9048 58.5888 48.3168C57.8664 47.8992 56.832 47.5176 55.4712 47.1744C56.736 46.7448 57.7536 46.2024 58.5216 45.5424C59.292 44.8848 59.8824 44.1264 60.2928 43.2696C60.7008 42.4104 60.9048 41.5032 60.9048 40.548C60.9048 39.2328 60.5184 38.0232 59.7504 36.9216C58.9728 35.8224 57.8664 34.9752 56.4264 34.3896C55.8648 34.1616 55.1976 33.9888 54.48 33.8496V28.7352H49.572V33.504H46.4184V28.7352H41.5104V33.504H34.0248V37.512H35.1696C35.9304 37.512 36.4464 37.584 36.7176 37.7208C36.9888 37.8576 37.1784 38.0472 37.2888 38.28C37.4016 38.5152 37.4568 39.0648 37.4568 39.9216V56.0832C37.4568 56.9328 37.404 57.4728 37.2888 57.7152C37.1784 57.96 36.9888 58.1472 36.7176 58.2744C36.4464 58.4064 35.9328 58.4736 35.1696 58.4736H34.0248V62.4816H41.5104V67.248H46.4184V62.4816H49.2096C49.3392 62.4816 49.4568 62.4792 49.5744 62.4792V67.248H54.4824V62.0688C55.3056 61.9104 56.0328 61.7112 56.6448 61.4592C58.3368 60.7848 59.6448 59.8008 60.5784 58.5048C61.5072 57.2184 61.9728 55.8 61.9728 54.2616ZM51.4896 44.8296C52.2888 44.5536 52.884 44.1336 53.2872 43.5792C53.688 43.02 53.8872 42.3696 53.8872 41.6352C53.8872 40.8744 53.6976 40.224 53.3184 39.684C52.9368 39.144 52.3824 38.76 51.6672 38.532C50.9448 38.3016 49.656 38.1864 47.8056 38.1864H44.628V45.2496H47.8056C49.4664 45.2472 50.6928 45.108 51.4896 44.8296Z" fill="#9BFFF4"/>
</svg>
