<svg width="92" height="77" viewBox="0 0 92 77" fill="none" xmlns="http://www.w3.org/2000/svg">
<g clip-path="url(#clip0)">
<path d="M78.5714 13.8138C78.5798 13.7011 78.5826 13.5881 78.5826 13.4753C78.5826 10.2863 76.0081 7.70059 72.8327 7.70059C71.3616 7.70059 70.0167 8.25742 69.0003 9.1723C68.3435 8.58175 67.5544 8.14181 66.6783 7.90354C66.9395 7.24363 67.0828 6.52753 67.0828 5.77482C67.0828 2.58574 64.5082 6.10352e-05 61.3329 6.10352e-05C59.8617 6.10352e-05 58.5166 0.556888 57.5004 1.47209C56.484 0.55721 55.1392 6.10352e-05 53.668 6.10352e-05C52.194 6.10352e-05 50.8521 0.556888 49.8327 1.47209C48.8163 0.55721 47.4743 6.10352e-05 46.0003 6.10352e-05C44.5263 6.10352e-05 43.1843 0.556888 42.1679 1.47209C41.1488 0.55721 39.8069 6.10352e-05 38.3329 6.10352e-05C36.8617 6.10352e-05 35.5169 0.556888 34.5004 1.47209C33.484 0.55721 32.1392 6.10352e-05 30.668 6.10352e-05C27.4927 6.10352e-05 24.9181 2.58574 24.9181 5.77482C24.9181 6.52046 25.0585 7.23015 25.3149 7.88459C24.7902 8.0291 24.2978 8.25132 23.8508 8.53872C23.548 8.72369 23.2634 8.93595 23.0003 9.1723C22.7746 8.96903 22.5325 8.78342 22.2764 8.61772C21.4185 8.03392 20.3838 7.69256 19.2695 7.69256C19.1218 7.69256 18.9754 7.69899 18.8309 7.71055C15.8122 7.88588 13.4179 10.3996 13.4179 13.4753C13.4179 13.5881 13.4208 13.7008 13.4291 13.8138C5.13247 15.2068 0.000292778 17.1268 0.000292778 19.2501V69.2962C0.000292778 73.551 20.5942 76.9999 46.0003 76.9999C71.4067 76.9999 92.0003 73.5514 92.0003 69.2962V19.2501C92.0003 17.1268 86.8707 15.2065 78.5718 13.8138H78.5714ZM43.9961 1.79385C45.1175 1.79385 46.0265 2.70681 46.0265 3.83299C46.0265 4.95916 45.1175 5.87212 43.9961 5.87212C43.9472 5.87212 43.8989 5.87019 43.8507 5.86698L43.851 5.83583C43.851 4.50831 43.3944 3.28804 42.6305 2.32403C42.9912 1.99488 43.4702 1.79418 43.9958 1.79418L43.9961 1.79385ZM17.094 9.44044C18.2154 9.44044 19.1244 10.3534 19.1244 11.4796C19.1244 12.6057 18.2154 13.5187 17.094 13.5187C15.9727 13.5187 15.0637 12.6057 15.0637 11.4796C15.0637 10.3534 15.9727 9.44044 17.094 9.44044ZM24.8529 9.36754C25.9742 9.36754 26.8832 10.2805 26.8832 11.4067C26.8832 12.5329 25.9742 13.4458 24.8529 13.4458C24.7755 13.4458 24.6991 13.4413 24.6236 13.433C24.631 13.3167 24.6351 13.1998 24.6351 13.082C24.6351 11.8643 24.2329 10.7413 23.5547 9.83895C23.9068 9.5448 24.3592 9.36786 24.8526 9.36786L24.8529 9.36754ZM28.551 1.57517C29.6723 1.57517 30.5814 2.48812 30.5814 3.6143C30.5814 4.74048 29.6723 5.65343 28.551 5.65343C27.4297 5.65343 26.5206 4.74048 26.5206 3.6143C26.5206 2.48812 27.4297 1.57517 28.551 1.57517ZM34.0042 10.2648C34.2239 10.5907 34.3521 10.9834 34.3521 11.4064C34.3521 12.5325 33.4431 13.4455 32.3217 13.4455C32.2443 13.4455 32.1679 13.441 32.0925 13.4326C32.0998 13.3164 32.104 13.1995 32.104 13.0816C32.104 12.4596 31.9988 11.8623 31.8057 11.3065C32.6197 11.1234 33.367 10.7622 34.0039 10.2651L34.0042 10.2648ZM51.6102 1.79353C52.7315 1.79353 53.6405 2.70649 53.6405 3.83266C53.6405 4.95884 52.7315 5.8718 51.6102 5.8718C51.5612 5.8718 51.513 5.86987 51.4647 5.86666L51.465 5.83551C51.465 4.50799 51.0084 3.28772 50.2445 2.32371C50.6052 1.99456 51.0842 1.79385 51.6098 1.79385L51.6102 1.79353ZM59.369 1.79353C60.4904 1.79353 61.3994 2.70649 61.3994 3.83266C61.3994 4.95884 60.4904 5.8718 59.369 5.8718C59.3201 5.8718 59.2718 5.86987 59.2235 5.86666L59.2239 5.83551C59.2239 4.50799 58.7673 3.28772 58.0034 2.32371C58.3641 1.99456 58.843 1.79385 59.3687 1.79385L59.369 1.79353ZM41.6544 10.2648C41.874 10.5907 42.0022 10.9834 42.0022 11.4064C42.0022 12.5325 41.0932 13.4455 39.9719 13.4455C39.8945 13.4455 39.8181 13.441 39.7426 13.4326C39.75 13.3164 39.7541 13.1995 39.7541 13.0816C39.7541 12.4596 39.6489 11.8623 39.4558 11.3065C40.2699 11.1234 41.0171 10.7622 41.654 10.2651L41.6544 10.2648ZM49.4497 10.2648C49.6693 10.5907 49.7975 10.9834 49.7975 11.4064C49.7975 12.5325 48.8885 13.4455 47.7672 13.4455C47.6898 13.4455 47.6134 13.441 47.5379 13.4326C47.5453 13.3164 47.5494 13.1995 47.5494 13.0816C47.5494 12.4596 47.4442 11.8623 47.2511 11.3065C48.0652 11.1234 48.8124 10.7622 49.4493 10.2651L49.4497 10.2648ZM57.0272 10.2648C57.2469 10.5907 57.3751 10.9834 57.3751 11.4064C57.3751 12.5325 56.4661 13.4455 55.3447 13.4455C55.2674 13.4455 55.191 13.441 55.1155 13.4326C55.1228 13.3164 55.127 13.1995 55.127 13.0816C55.127 12.4596 55.0218 11.8623 54.8287 11.3065C55.6427 11.1234 56.39 10.7622 57.0269 10.2651L57.0272 10.2648ZM64.7861 10.2648C65.0057 10.5907 65.134 10.9834 65.134 11.4064C65.134 12.5325 64.2249 13.4455 63.1036 13.4455C63.0262 13.4455 62.9498 13.441 62.8744 13.4326C62.8817 13.3164 62.8859 13.1995 62.8859 13.0816C62.8859 12.4596 62.7807 11.8623 62.5875 11.3065C63.4016 11.1234 64.1488 10.7622 64.7858 10.2651L64.7861 10.2648ZM70.6083 9.14918C71.7296 9.14918 72.6386 10.0621 72.6386 11.1883C72.6386 12.3145 71.7296 13.2274 70.6083 13.2274C70.5594 13.2274 70.5111 13.2255 70.4628 13.2223L70.4631 13.1912C70.4631 11.8636 70.0065 10.6434 69.2427 9.67935C69.6033 9.3502 70.0823 9.1495 70.608 9.1495L70.6083 9.14918ZM76.3518 17.7659C76.5715 18.0918 76.6997 18.4845 76.6997 18.9075C76.6997 20.0336 75.7907 20.9466 74.6693 20.9466C74.5919 20.9466 74.5155 20.9421 74.4401 20.9338C74.4474 20.8175 74.4516 20.7006 74.4516 20.5828C74.4516 19.9607 74.3464 19.3635 74.1532 18.8076C74.9673 18.6246 75.7145 18.2633 76.3515 17.7662L76.3518 17.7659ZM61.0518 18.0571C61.2715 18.3831 61.3997 18.7758 61.3997 19.1987C61.3997 20.3249 60.4907 21.2379 59.3693 21.2379C59.292 21.2379 59.2155 21.2334 59.1401 21.225C59.1474 21.1088 59.1516 20.9919 59.1516 20.874C59.1516 20.252 59.0464 19.6547 58.8533 19.0989C59.6673 18.9158 60.4146 18.5546 61.0515 18.0575L61.0518 18.0571ZM68.5929 17.6567C68.8126 17.9826 68.9408 18.3754 68.9408 18.7983C68.9408 19.9245 68.0318 20.8374 66.9104 20.8374C66.8331 20.8374 66.7567 20.8329 66.6812 20.8246C66.6886 20.7083 66.6927 20.5914 66.6927 20.4736C66.6927 19.8516 66.5875 19.2543 66.3944 18.6984C67.2085 18.5154 67.9557 18.1541 68.5926 17.657L68.5929 17.6567ZM53.1839 17.9113C53.4036 18.2373 53.5318 18.63 53.5318 19.0529C53.5318 20.1791 52.6228 21.0921 51.5014 21.0921C51.4241 21.0921 51.3477 21.0876 51.2722 21.0792C51.2796 20.963 51.2837 20.8461 51.2837 20.7282C51.2837 20.1062 51.1785 19.5089 50.9854 18.9531C51.7994 18.77 52.5467 18.4088 53.1836 17.9117L53.1839 17.9113ZM45.7512 17.9113C45.9709 18.2373 46.0991 18.63 46.0991 19.0529C46.0991 20.1791 45.1901 21.0921 44.0687 21.0921C43.9914 21.0921 43.9149 21.0876 43.8395 21.0792C43.8468 20.963 43.851 20.8461 43.851 20.7282C43.851 20.1062 43.7458 19.5089 43.5527 18.9531C44.3667 18.77 45.114 18.4088 45.7509 17.9117L45.7512 17.9113ZM37.8111 17.8022C38.0307 18.1281 38.1589 18.5208 38.1589 18.9438C38.1589 20.0699 37.2499 20.9829 36.1286 20.9829C36.0512 20.9829 35.9748 20.9784 35.8993 20.97C35.9067 20.8538 35.9108 20.7369 35.9108 20.6191C35.9108 19.997 35.8056 19.3997 35.6125 18.8439C36.4266 18.6608 37.1738 18.2996 37.8107 17.8025L37.8111 17.8022ZM30.5961 17.693C30.8157 18.0189 30.944 18.4117 30.944 18.8346C30.944 19.9607 30.0349 20.8737 28.9136 20.8737C28.8362 20.8737 28.7598 20.8692 28.6843 20.8609C28.6917 20.7446 28.6959 20.6277 28.6959 20.5099C28.6959 19.8879 28.5907 19.2906 28.3975 18.7347C29.2116 18.5517 29.9588 18.1904 30.5958 17.6933L30.5961 17.693ZM22.6559 17.7659C22.8756 18.0918 23.0038 18.4845 23.0038 18.9075C23.0038 20.0336 22.0948 20.9466 20.9734 20.9466C20.8961 20.9466 20.8197 20.9421 20.7442 20.9338C20.7515 20.8175 20.7557 20.7006 20.7557 20.5828C20.7557 19.9607 20.6505 19.3635 20.4574 18.8076C21.2714 18.6246 22.0187 18.2633 22.6556 17.7662L22.6559 17.7659ZM36.3099 1.79385C37.4312 1.79385 38.3402 2.70681 38.3402 3.83299C38.3402 4.95916 37.4312 5.87212 36.3099 5.87212C36.2609 5.87212 36.2127 5.87019 36.1644 5.86698L36.1647 5.83583C36.1647 4.50831 35.7081 3.28804 34.9443 2.32403C35.3049 1.99488 35.7839 1.79418 36.3096 1.79418L36.3099 1.79385ZM13.3594 16.9049C14.4808 16.9049 15.3898 17.8179 15.3898 18.9441C15.3898 20.0703 14.4808 20.9832 13.3594 20.9832C12.2381 20.9832 11.3291 20.0703 11.3291 18.9441C11.3291 17.8179 12.2381 16.9049 13.3594 16.9049ZM31.1758 52.6597C40.1544 53.9063 54.5745 55.7615 57.4998 55.7615C58.303 55.7615 60.8075 54.9888 63.8592 53.2715C66.389 51.8447 67.9276 50.5561 68.6294 49.8062C68.0903 49.0815 66.9169 47.8917 64.9936 46.6933C62.4555 45.1198 59.7265 44.212 57.5001 44.212C50.7871 44.212 31.437 47.2459 31.2429 47.2739L29.8783 47.4884L28.6933 46.7835L25.7229 45.0128L26.7451 48.3882L27.124 49.6428L26.6636 50.8666L25.5349 53.8726L29.648 52.7558L30.4007 52.5528L31.1755 52.6601L31.1758 52.6597ZM59.4176 49.9867C58.359 49.9867 57.5001 49.1267 57.5001 48.0635C57.5001 47.0003 58.3593 46.1403 59.4176 46.1403C60.476 46.1403 61.3326 47.0003 61.3326 48.0635C61.3326 49.1264 60.4763 49.9867 59.4176 49.9867ZM22.6367 49.541L18.671 36.4209L19.219 36.7478L19.1845 36.6335L30.4813 43.3716C32.175 43.1073 50.829 40.2227 57.7204 40.2227C64.9424 40.2227 73.2605 46.6268 73.2605 50.0294C73.2605 53.4378 62.0555 59.8404 57.7204 59.8404C53.3854 59.8404 30.3569 56.6391 30.3569 56.6391L18.7912 59.7771L22.6367 49.5407V49.541ZM85.2812 19.2498C84.4784 19.4967 83.4958 19.7617 82.3025 20.0365C82.1817 19.4232 81.9626 18.8452 81.6653 18.3192C83.1534 18.6435 84.338 18.9592 85.2812 19.2498ZM10.335 18.3195C10.0373 18.8468 9.81829 19.4232 9.69775 20.0369C8.50447 19.762 7.5219 19.4967 6.71903 19.2501C7.66227 18.9595 8.84691 18.6438 10.3353 18.3195H10.335ZM19.1733 71.676C18.3842 71.5771 17.6094 71.4759 16.8542 71.3687C14.7599 71.0726 12.9799 70.7682 11.4694 70.4634C11.4889 70.3533 11.5005 70.2406 11.5005 70.125C11.5005 69.0621 10.6413 68.2021 9.58264 68.2021C8.70942 68.2021 7.97114 68.7885 7.7438 69.5951C5.57372 69.0001 4.41113 68.4783 3.83272 68.1655V66.6061C6.95212 67.6099 12.3286 68.9465 20.7992 69.922C19.9231 70.0543 19.244 70.7791 19.1736 71.676H19.1733ZM30.6677 72.7023C28.0004 72.5389 25.423 72.3359 22.9776 72.096C22.9917 72.0087 23 71.9185 23 71.8224C23 71.0103 22.4945 70.3141 21.7814 70.0347C24.8334 70.3674 28.27 70.6494 32.1276 70.8581C31.2995 71.0611 30.6789 71.8054 30.6677 72.7023ZM44.0825 73.1423C40.8256 73.1198 37.6109 73.035 34.4918 72.8998C34.4973 72.8433 34.5001 72.7871 34.5001 72.7248C34.5001 71.8902 33.9665 71.1796 33.2253 70.9146C37.0577 71.1006 41.2918 71.2136 45.9635 71.2248C45.9747 71.2248 45.9859 71.2248 46 71.2248C44.9445 71.2248 44.0879 72.0819 44.0825 73.1423ZM57.5004 72.7248C57.5004 72.7868 57.5033 72.8433 57.5088 72.8998C54.3894 73.035 51.1747 73.1198 47.9178 73.1423C47.912 72.0819 47.0554 71.2248 46 71.2248C46.1685 71.2248 46.3312 71.2248 46.4972 71.2248C50.9416 71.2248 54.9876 71.1259 58.6656 70.9541C57.9807 71.2473 57.5004 71.9297 57.5004 72.7248ZM69.0003 71.8224C69.0003 71.9185 69.0086 72.0087 69.0227 72.096C66.5773 72.3356 63.9998 72.5385 61.3326 72.702C61.3214 71.8504 60.7628 71.1343 59.9903 70.8918C63.7329 70.6943 67.0796 70.4236 70.0612 70.1022C69.4326 70.4182 69.0003 71.0723 69.0003 71.8221V71.8224ZM80.5004 70.125C80.5004 70.2406 80.5116 70.3536 80.5315 70.4634C79.021 70.7679 77.241 71.0726 75.1464 71.3687C74.3908 71.4759 73.6161 71.5771 72.8273 71.676C72.7627 70.8385 72.1645 70.1532 71.3757 69.9561C75.5953 69.4683 79.0405 68.8845 81.8146 68.2981C81.051 68.5518 80.5008 69.2737 80.5008 70.1253L80.5004 70.125ZM88.1679 68.1652C87.5894 68.4783 86.4269 69.0001 84.2568 69.5948C84.0291 68.7885 83.2912 68.2018 82.4179 68.2018C82.3534 68.2018 82.2916 68.2018 82.2299 68.2072C84.7594 67.6604 86.7079 67.1132 88.1679 66.6337V68.1648V68.1652ZM88.1679 24.0605C86.7134 24.5991 84.2597 25.3688 80.5506 26.1318C80.3761 26.1677 80.2005 26.2031 80.0247 26.2381C79.8488 26.2731 79.6723 26.3074 79.4952 26.3418C79.318 26.3758 79.1403 26.4095 78.9622 26.4429C78.7841 26.4763 78.605 26.5091 78.4256 26.5415C78.2463 26.574 78.0662 26.6057 77.8859 26.6375C77.7056 26.669 77.5246 26.7002 77.3433 26.731C77.162 26.7618 76.9801 26.792 76.7978 26.8219C76.6156 26.8517 76.4327 26.8813 76.2495 26.9102C76.0663 26.9394 75.8824 26.9677 75.6986 26.9959C75.5144 27.0242 75.3299 27.0521 75.1451 27.0794C74.9603 27.1067 74.7751 27.134 74.5894 27.1606C74.4039 27.1873 74.2178 27.2136 74.0317 27.2393C73.8453 27.2653 73.6589 27.2907 73.4719 27.3158C73.2848 27.3408 73.0978 27.3655 72.9104 27.3899C72.723 27.4143 72.535 27.4384 72.3473 27.4619C72.1593 27.4856 71.9713 27.5087 71.7827 27.5315C71.5944 27.5543 71.4057 27.5768 71.2167 27.599C71.0278 27.6211 70.8391 27.643 70.6495 27.6645C70.4602 27.686 70.2709 27.7072 70.0813 27.7278C69.8917 27.7486 69.7021 27.7689 69.5122 27.7888C69.3226 27.8087 69.1323 27.8286 68.9424 27.8479L68.372 27.905C68.1818 27.9236 67.9915 27.9419 67.8013 27.9599C67.611 27.9779 67.4208 27.9956 67.2302 28.0129C67.04 28.0303 66.8497 28.0473 66.6591 28.064C66.4689 28.0807 66.2783 28.097 66.0881 28.1131L65.5173 28.1603L64.9469 28.2059L64.3771 28.2496C64.1872 28.264 63.9976 28.2778 63.808 28.2913C63.6184 28.3051 63.4288 28.3183 63.2395 28.3315L62.672 28.37L62.1057 28.4066L61.5407 28.4416L60.9773 28.475L60.4155 28.5068L59.8553 28.537L59.2974 28.5656L58.7414 28.5929L58.1876 28.6185L57.636 28.6426L57.0873 28.6654L56.5412 28.6869L55.998 28.7069L55.4576 28.7258L54.9205 28.7435L54.3868 28.7598L53.8567 28.7749L53.3301 28.7887L52.8073 28.8013L52.2883 28.8128L51.7736 28.8231L51.2629 28.8324L50.7568 28.8408L50.2551 28.8481L49.7582 28.8546L49.2661 28.8597L48.7792 28.8642L48.2973 28.8677L47.8209 28.8703L47.3499 28.8722L46.8847 28.8732L46.4252 28.8735L45.9718 28.8732L45.5204 28.8722L45.0628 28.8703L44.5995 28.8677L44.1304 28.8642L43.6559 28.86L43.176 28.8549L42.691 28.8488L42.2008 28.842L41.7058 28.834L41.2061 28.8253L40.7018 28.8154L40.1931 28.8045L39.6799 28.7926L39.1626 28.7797L38.6414 28.7656L38.1164 28.7505L37.5879 28.7341L37.0555 28.7165L36.5199 28.6975L35.9815 28.6773L35.4399 28.6558L34.8953 28.633L34.3479 28.6089L33.798 28.5832L33.2455 28.5562L32.691 28.528L32.1344 28.4981L31.5758 28.4667L31.0153 28.4336L30.4532 28.3992L29.8895 28.3633C29.7014 28.3511 29.5131 28.3385 29.3245 28.3254L28.7585 28.2859L28.1913 28.2448C28.002 28.231 27.8127 28.2165 27.6231 28.202L27.0543 28.1574L26.4852 28.1112C26.2956 28.0954 26.1053 28.0794 25.9154 28.063L25.3453 28.0132L24.7752 27.9615L24.2051 27.9079C24.0148 27.8896 23.8252 27.871 23.6353 27.8523L23.0658 27.7949C22.8762 27.7753 22.6863 27.7557 22.4967 27.7355C22.3071 27.7152 22.1178 27.6947 21.9285 27.6741C21.7392 27.6532 21.5499 27.6321 21.361 27.6105C21.172 27.589 20.983 27.5672 20.7944 27.5447C20.6057 27.5226 20.4171 27.4998 20.2291 27.477C20.0408 27.4542 19.8528 27.4307 19.6651 27.4073C19.4774 27.3835 19.2897 27.3597 19.1023 27.3353C18.9149 27.3109 18.7279 27.2862 18.5412 27.2612C18.3544 27.2358 18.168 27.2107 17.9816 27.1847C17.7955 27.1587 17.6098 27.1327 17.4243 27.1061C17.2389 27.0794 17.0537 27.0524 16.8689 27.0251C16.6841 26.9978 16.4999 26.9702 16.3158 26.942C16.1319 26.914 15.9481 26.8854 15.7648 26.8565C15.5816 26.8276 15.3991 26.7984 15.2165 26.7686C15.0342 26.7387 14.8523 26.7085 14.671 26.6783C14.4897 26.6478 14.3087 26.617 14.1281 26.5855C13.9478 26.554 13.7677 26.5226 13.5884 26.4901C13.409 26.458 13.2303 26.4256 13.0518 26.3925C12.8734 26.3594 12.6956 26.3264 12.5185 26.2923C12.3414 26.2586 12.1646 26.2243 11.9887 26.1896C11.8125 26.1549 11.6373 26.1199 11.4624 26.0842L11.2897 26.0489L11.1187 26.0136L10.9495 25.9783L10.782 25.9429L10.6164 25.9076L10.4527 25.8723L10.2909 25.837L10.1307 25.8017L9.97241 25.7663L9.81573 25.7313L9.66098 25.6963L9.50782 25.6613L9.35658 25.6263L9.20694 25.5913L9.05922 25.5563L8.9131 25.5216L8.7689 25.487L8.62629 25.4523L8.48528 25.4179L8.3462 25.3836L8.20871 25.3492L8.07314 25.3148L7.93917 25.2808L7.80679 25.2468L7.67634 25.2127L7.54716 25.179L7.41991 25.1453L7.29425 25.1119L7.17051 25.0785L7.04805 25.0454L6.9275 25.0123L6.80856 24.9796L6.69121 24.9468L6.57547 24.9144L6.46132 24.882L6.34877 24.8498L6.23782 24.8181L6.12879 24.7863L6.02135 24.7548L5.9152 24.7233L5.81064 24.6922L5.70801 24.6613L5.60665 24.6305L5.50689 24.6L5.40873 24.5698L5.31217 24.5396L5.2172 24.5098L5.12384 24.4802L5.03207 24.451L4.94159 24.4218L4.8527 24.3929L4.76541 24.3643L4.67972 24.3361L4.59562 24.3081L4.51281 24.2805L4.4316 24.2532L4.35198 24.2259L4.27396 24.1989L4.19723 24.1723L4.12209 24.1459L4.04855 24.1199L3.97628 24.0942L3.90562 24.0689L3.83624 24.0438V23.102V22.3351C3.94719 22.3775 4.06038 22.4199 4.1758 22.462C4.29123 22.504 4.4089 22.5458 4.52848 22.5875C4.64838 22.6293 4.7702 22.6707 4.89426 22.7118C5.01832 22.7529 5.14462 22.794 5.27316 22.8348C5.40137 22.8756 5.53215 22.916 5.66452 22.9565C5.79721 22.9966 5.93183 23.0371 6.06868 23.0769C6.20553 23.1167 6.34429 23.1566 6.4853 23.1961C6.62631 23.2356 6.76923 23.2747 6.91407 23.3139C7.05892 23.3531 7.206 23.3916 7.355 23.4302C7.504 23.4687 7.65492 23.5069 7.80807 23.5451C7.96123 23.583 8.11598 23.6209 8.27298 23.6585C8.42997 23.6961 8.58856 23.7333 8.74939 23.7706C8.91022 23.8078 9.07297 23.8444 9.23764 23.881C9.4023 23.9176 9.56857 23.9539 9.73707 23.9899C9.90558 24.0258 10.0757 24.0618 10.2477 24.0971C10.42 24.1328 10.5937 24.1678 10.7695 24.2028C10.9454 24.2378 11.1228 24.2725 11.3025 24.3068C11.4819 24.3415 11.6632 24.3755 11.8464 24.4093C12.0293 24.4433 12.2141 24.477 12.4005 24.5101C12.5873 24.5435 12.7753 24.5766 12.9652 24.6093C13.1554 24.6424 13.347 24.6745 13.5404 24.7069C13.7338 24.7391 13.9289 24.7712 14.1259 24.803C14.3228 24.8348 14.5214 24.8659 14.7215 24.8971C14.9217 24.9282 15.1238 24.959 15.3271 24.9895C15.5305 25.02 15.7358 25.0502 15.9423 25.0801C16.1492 25.11 16.3573 25.1395 16.5674 25.1687C16.7772 25.1979 16.9888 25.2268 17.2018 25.2557C17.4147 25.2843 17.6293 25.3129 17.8454 25.3408C18.2777 25.397 18.7161 25.4516 19.1605 25.5053C19.3827 25.5322 19.6062 25.5586 19.8313 25.5846C20.0564 25.6106 20.2831 25.6366 20.5111 25.662C20.7391 25.6877 20.9687 25.7124 21.1995 25.7374C21.4304 25.7622 21.6628 25.7866 21.8962 25.8106C22.13 25.8347 22.365 25.8585 22.6013 25.8819C22.8379 25.9054 23.0754 25.9285 23.3146 25.9513C23.5538 25.9741 23.7942 25.9966 24.0359 26.0184C24.2777 26.0406 24.5207 26.0621 24.7649 26.0836C25.0092 26.1048 25.2551 26.126 25.502 26.1465C25.7488 26.1671 25.9969 26.1873 26.2463 26.2072C26.4957 26.2271 26.7461 26.2467 26.998 26.2657C27.5016 26.3039 28.0103 26.3408 28.5235 26.3761C28.7803 26.3938 29.038 26.4108 29.2967 26.4278C29.5553 26.4445 29.8156 26.4612 30.0768 26.4773C30.338 26.4934 30.6002 26.5091 30.8637 26.5245C31.3903 26.5553 31.9217 26.5846 32.457 26.6118C32.9922 26.6395 33.5316 26.6655 34.0752 26.6896C34.347 26.7018 34.6197 26.7136 34.8931 26.7249C35.1668 26.7361 35.4415 26.747 35.7171 26.7576C35.9927 26.7682 36.2693 26.7782 36.5465 26.7881C36.8237 26.7978 37.1022 26.8071 37.3816 26.8161C37.6608 26.8251 37.9412 26.8334 38.2219 26.8415C38.503 26.8495 38.7847 26.8572 39.0673 26.8643C39.35 26.8713 39.6336 26.8781 39.9182 26.8845C40.2027 26.8909 40.4876 26.8967 40.7738 26.9021C41.06 26.9076 41.3468 26.9127 41.6342 26.9172C41.9217 26.9217 42.2101 26.9259 42.4991 26.9294C42.7882 26.933 43.0778 26.9362 43.3685 26.9391C43.6591 26.9416 43.9504 26.9442 44.2423 26.9461C44.5343 26.9481 44.8268 26.9493 45.1204 26.9503C45.4136 26.9513 45.7077 26.9516 46.0025 26.9516C64.8616 26.9516 81.067 25.0525 88.1701 22.3342V23.101H88.1704V24.0625L88.1679 24.0605Z" fill="#9BFFF4"/>
</g>
<defs>
<clipPath id="clip0">
<rect width="92" height="77" fill="white"/>
</clipPath>
</defs>
</svg>
