<svg width="23" height="25" viewBox="0 0 23 25" fill="none" xmlns="http://www.w3.org/2000/svg">
<path d="M22.3831 13.8589C22.3019 13.6642 22.1123 13.5371 21.902 13.5371H16.1966V0.520676C16.1966 0.233272 15.9634 0 15.676 0H7.34539C7.05799 0 6.82472 0.233272 6.82472 0.520676V13.5372H1.09748C0.887153 13.5372 0.697617 13.6642 0.616394 13.8579C0.536197 14.0526 0.579932 14.2765 0.728857 14.4255L11.116 24.847C11.2139 24.9448 11.3462 25 11.4846 25C11.6231 25 11.7554 24.9448 11.8533 24.848L22.2706 14.4265C22.4195 14.2775 22.4643 14.0537 22.3831 13.8589Z" fill="#FF468B"/>
</svg>
