<svg width="34" height="33" viewBox="0 0 34 33" fill="none" xmlns="http://www.w3.org/2000/svg">
<path d="M17 33C26.1127 33 33.5 25.6127 33.5 16.5C33.5 7.3873 26.1127 0 17 0C7.8873 0 0.5 7.3873 0.5 16.5C0.510347 25.6084 7.89151 32.9897 17 33ZM10.4 12.0999C10.4 9.38076 12.7838 7.12129 15.9 6.68239V4.39994C15.9 3.79249 16.3924 3.29993 17 3.29993C17.6076 3.29993 18.1 3.79237 18.1 4.39994V6.68239C21.2162 7.12249 23.6 9.38076 23.6 12.0999C23.6 12.7074 23.1075 13.2 22.5 13.2C21.8924 13.2 21.3999 12.7075 21.3999 12.0999C21.3999 10.5666 19.9919 9.28619 18.0999 8.91767V15.4825C21.2162 15.9225 23.6 18.1808 23.6 20.8999C23.6 23.6191 21.2162 25.8786 18.1 26.3175V28.5999C18.1 29.2074 17.6076 29.6999 17 29.6999C16.3924 29.6999 15.9 29.2075 15.9 28.5999V26.3175C12.7837 25.8775 10.4 23.6192 10.4 20.8999C10.4 20.2925 10.8925 19.7999 11.5 19.7999C12.1076 19.7999 12.6001 20.2924 12.6001 20.8999C12.6001 22.4333 14.0081 23.7137 15.9001 24.0822V17.5175C12.7837 17.0786 10.4 14.8192 10.4 12.0999Z" fill="white"/>
</svg>
