<svg width="219" height="63" viewBox="0 0 219 63" fill="none" xmlns="http://www.w3.org/2000/svg">
<path d="M10.45 38.85C13.35 41.8833 16.9167 43.4 21.15 43.4C25.3833 43.4 28.95 41.8833 31.85 38.85C34.75 35.7833 36.2 32 36.2 27.5C36.2 22.9667 34.75 19.1833 31.85 16.15C28.95 13.1167 25.3833 11.6 21.15 11.6C16.9167 11.6 13.35 13.1167 10.45 16.15C7.55 19.1833 6.1 22.9667 6.1 27.5C6.1 32 7.55 35.7833 10.45 38.85ZM21.15 45.6C16.1833 45.6 12.0333 43.8833 8.7 40.45C5.4 37.0167 3.75 32.7 3.75 27.5C3.75 22.3667 5.4 18.0667 8.7 14.6C12.0667 11.1333 16.2167 9.4 21.15 9.4C26.05 9.4 30.1833 11.1333 33.55 14.6C36.8833 18.0333 38.55 22.3333 38.55 27.5C38.55 32.7 36.8833 37.0167 33.55 40.45C30.2167 43.8833 26.0833 45.6 21.15 45.6ZM49.8352 45H47.5352V10H74.2852V45H71.9852V12.15H49.8352V45ZM96.2398 45H93.9398V12.15H81.3898V10H108.79V12.15H96.2398V45ZM117.846 45H115.846V10H118.146V41.1L141.796 10H143.896V45H141.596V13.8L117.846 45ZM156.769 45H154.469V10H156.769V25.45L174.569 10H177.819L159.369 26.05L180.619 45H177.119L156.769 26.8V45ZM185.204 45H182.754L198.654 9.8H200.804L216.604 45H214.204L209.554 34.7H189.854L185.204 45ZM199.704 12.8L190.654 32.7H208.704L199.704 12.8Z" fill="white"/>
<path d="M25.3999 31.8999C25.3999 30.3666 23.9919 29.0862 22.0999 28.7177V35.0823C23.9919 34.7138 25.3999 33.4333 25.3999 31.8999Z" fill="white"/>
<path d="M19.9 19.9176C18.0079 20.2862 16.5999 21.5676 16.5999 23.0999C16.5999 24.6322 18.0079 25.9136 19.9 26.2822V19.9176Z" fill="white"/>
<path d="M21 44C30.1127 44 37.5 36.6127 37.5 27.5C37.5 18.3873 30.1127 11 21 11C11.8873 11 4.5 18.3873 4.5 27.5C4.51035 36.6084 11.8915 43.9897 21 44ZM14.4 23.0999C14.4 20.3808 16.7838 18.1213 19.9 17.6824V15.3999C19.9 14.7925 20.3924 14.2999 21 14.2999C21.6076 14.2999 22.1 14.7924 22.1 15.3999V17.6824C25.2162 18.1225 27.6 20.3808 27.6 23.0999C27.6 23.7074 27.1075 24.2 26.5 24.2C25.8924 24.2 25.3999 23.7075 25.3999 23.0999C25.3999 21.5666 23.9919 20.2862 22.0999 19.9177V26.4825C25.2162 26.9225 27.6 29.1808 27.6 31.8999C27.6 34.6191 25.2162 36.8786 22.1 37.3175V39.5999C22.1 40.2074 21.6076 40.6999 21 40.6999C20.3924 40.6999 19.9 40.2075 19.9 39.5999V37.3175C16.7837 36.8775 14.4 34.6192 14.4 31.8999C14.4 31.2925 14.8925 30.7999 15.5 30.7999C16.1076 30.7999 16.6001 31.2924 16.6001 31.8999C16.6001 33.4333 18.0081 34.7137 19.9001 35.0822V28.5175C16.7837 28.0786 14.4 25.8192 14.4 23.0999Z" fill="white"/>
</svg>
