<svg width="138" height="92" viewBox="0 0 138 92" fill="none" xmlns="http://www.w3.org/2000/svg">
<path fill-rule="evenodd" clip-rule="evenodd" d="M137.915 36.4623L137.559 36.0388L137.261 35.5677L137.098 35.2213L137.049 34.8464L137.195 34.4619L137.33 34.3373L137.628 34.1641L137.743 34.0004L137.781 33.7606L137.666 33.636L136.915 33.4342H136.762L136.579 33.5018L136.127 33.9634L135.934 34.0796L135.704 34.1651L135.472 34.2127L135.261 34.2031L135.107 34.1366L134.712 33.7522L134.404 33.6085L134.136 33.5314L133.904 33.3677L133.713 32.9642L133.598 32.4541L133.511 32.1848L133.415 32.0591L132.962 32.0116L132.818 31.944L132.539 31.7623L132.25 31.8193L131.951 31.964L131.653 32.0316L131.364 31.964L131.143 31.8193L130.971 31.5796L130.547 30.4738L130.345 30.3016L130.047 30.4072L129.913 30.5614L129.672 30.9269L129.527 31.0515L129.402 31.0906L128.68 31.1392L128.478 30.9374L128.286 30.648L128.027 30.4083L127.227 30.178L126.767 29.8411L126.718 29.7925L126.68 29.688L126.661 29.4957L126.593 29.2655V29.237L126.574 29.2655L126.391 29.332L126.324 29.3796L126.257 29.4091L125.882 29.3415L125.324 29.4482L125.044 29.3415L124.862 29.2169L124.726 29.1588L124.39 29.1208L124.237 29.0543L124.15 28.9191L123.92 28.2368L123.814 28.1016L123.669 28.0826L123.458 28.1206L122.967 28.0826L122.841 28.1111L122.765 28.4681L122.822 29.0152L122.784 29.5348L122.418 29.7841L122.342 29.7651L122.207 29.67L122.12 29.6499L122.024 29.6795L121.515 30.0059L121.475 29.9393V29.7556L121.36 29.5443L121.351 29.5253L121.101 29.0923L120.871 28.7944L120.611 28.5631L120.313 28.3709L119.707 28.0921L119.437 27.8998L118.706 26.7655L118.437 26.4962L118.379 26.4191L118.37 26.2944L118.389 26.1698L118.466 25.8825L118.447 25.3819L118.206 25.1221L117.532 24.7957L117.408 24.4778L117.302 24.0839L117.187 23.7755L117.032 23.6888L116.263 23.7955L116.042 23.8906L115.589 24.3521L115.359 24.5253L114.252 24.8528L113.703 24.7651L113.194 24.8042L112.693 24.9869L111.422 25.7368L111.326 25.8329L111.258 25.9385L111.133 26.1983L111.066 26.2944L110.922 26.3916L110.749 26.4106L110.576 26.3821L110.412 26.3156L110.297 26.2184L110.278 26.1128L110.297 25.9966L110.288 25.7463L110.307 25.6988L110.288 25.6702L110.172 25.5921L110.105 25.5636L109.865 25.5065L109.653 25.3523L109.48 25.3143L109.326 25.2182L109.249 25.1886H109.152L109.095 25.2182L108.941 25.3724L108.768 25.4886L108.585 25.5646L108.402 25.5741L108.228 25.4886L107.468 24.2666L107.247 24.161L107.189 23.9402L106.978 23.8251L105.65 23.7184L104.928 23.8061L104.794 23.8536L104.688 23.9402L104.534 24.1515L104.447 24.2381L104.38 24.2666H104.236L104.169 24.2951L104.044 24.4493L103.958 24.6024L103.852 24.7271L103.669 24.7852L103.505 24.7757L103.351 24.7271L103.196 24.651L103.053 24.5444L102.89 24.3521L102.841 24.1694L102.832 23.9571L102.775 23.6783L102.669 23.4755L102.534 23.3614L102.371 23.3033L102.207 23.2738L101.948 23.1692L101.784 22.8703L101.418 21.4191L101.409 21.266L101.524 21.1213L102.12 20.8519L101.937 20.6217L101.928 20.3619L101.956 20.064L101.889 19.7282L101.822 19.613L101.735 19.5359L101.543 19.4208L101.437 19.3152L101.428 19.1906L101.447 19.0459L101.428 18.8726L101.36 18.7195L101.207 18.5083L101.149 18.3551L101.139 18.1724L101.158 18.0182L101.149 17.8746L101.052 17.7119L100.956 17.6538L100.774 17.6147L100.707 17.5387L100.688 17.4236V17.0972L100.658 16.962L101.081 16.8765L101.188 16.7698L101.254 16.5585L101.188 16.4255L101.052 16.3473L100.898 16.2998L100.638 16.2808L100.118 16.4054L99.859 16.3864L99.637 16.1656L99.4826 15.7622L99.3008 14.6469L99.2426 14.4747L99.1464 14.3501L99.0027 14.292L98.8388 14.3216L98.6855 14.3881L98.5407 14.4166L98.3969 14.3205L98.2532 14.2518L98.1379 14.2624L97.7806 14.4831L97.1558 14.7525L96.6262 14.876L96.068 14.838L95.9338 14.7905L95.8281 14.6849L95.7509 14.5022L95.7128 14.311L95.6642 14.1473L95.5585 14.0311L95.328 14.0026L94.8365 14.0892L94.5859 13.9931L94.0383 13.8009L93.7497 13.7533L93.4801 13.8209L93.1915 14.0617L93.0562 14.1198L92.8744 14.0807L92.3247 13.841L92.7676 13.5336L93.0752 13.2073L93.2676 12.7933L93.201 12.3803L93.0467 12.4669H92.922L92.7877 12.4384L92.663 12.3803L92.5477 12.3032L92.3934 12.1595L92.3162 12.0539L92.2877 11.9483L92.3268 11.8807L92.4991 11.8427L92.5467 11.7371L92.5668 11.6124L92.5467 11.5058L92.5181 11.4012L92.5086 11.2755L92.5276 11.1604L92.5953 10.9397L92.6143 10.815L92.5953 10.5457L92.5372 10.3345L92.4314 10.1612L92.1132 9.79581L92.0562 9.6997L92.0266 9.58352L91.9885 9.33426L91.96 9.24765L91.8542 9.18005L91.5847 9.10295L91.498 8.97727L91.5751 8.68893L91.8733 8.51571L93.1725 8.20731L93.625 8.21681L93.7698 8.17879L94.0584 7.83342L94.0489 7.32328L93.8374 6.83216L93.5393 6.53326L93.385 6.42764L93.1355 6.1393L93.0002 6.04213H92.9135L92.7687 6.10973L92.682 6.07171V6.04213L92.6524 5.86997L92.6344 5.81188L92.5858 5.76436L92.4801 5.69782L92.4314 5.65874L92.1428 5.28379L91.9885 5.16761H91.6037V5.06305L91.6618 4.88033L91.6333 4.66909L91.4694 4.40927L91.3732 4.19804L91.3257 3.95828L91.3066 3.55376L91.277 3.34253V3.27493L91.4124 2.99716V2.85246L91.3933 2.73733L91.3447 2.62221L91.2675 2.47857L91.1417 2.27684L91.017 2.1332L90.5265 1.79628L90.4208 1.66214L90.2283 1.23861L90.0835 1.03688L89.7664 0.835149L89.6131 0.691508L89.4957 0.470766L89.4387 0.297552L89.352 0.182428L89.1596 0.114832L88.8139 0.105326L88.4682 0.172922L87.7937 0.490833L87.2641 1.01998L87.1013 1.03899L86.966 0.837261L87.0146 0.365147L86.8708 0.153911L86.7546 0.222563L86.6488 0.317619L86.5431 0.39472L86.4089 0.404226L86.2936 0.346136L86.0822 0.192989L85.948 0.164472H85.4574L84.7069 0.0197754L84.6012 0.0387867L84.4764 0.124338L84.284 0.374653L84.1878 0.470766L84.043 0.5278L83.9658 0.575328L83.8791 0.748542L83.822 0.816138L83.7544 0.835149L83.6582 0.777059L83.5905 0.767553L83.4563 0.835149L82.6676 1.53751L82.5323 1.61356L82.3981 1.59454L82.1676 1.41182L82.0429 1.34529H81.8219L81.3684 1.46041H81.1379L79.6273 0.662991L79.2604 0.777059L78.5966 0.5278L78.2879 0.595395L78.1822 1.01892L78.2202 1.15306L78.365 1.41288L78.3936 1.51956L78.345 1.66425L78.2593 1.74135L78.1631 1.79839L78.086 1.87549L78.0183 2.09623L77.9232 2.84612L77.7012 3.32669L77.3639 3.59601L76.3057 4.09559L76.1619 4.10509L75.7 3.98046L75.4209 4.01004L75.0171 4.21071L74.8923 4.24028L74.7475 4.15262L74.7189 3.9604V3.72909L74.6809 3.52736L74.5075 3.35415L74.258 3.30556L73.7855 3.34464L72.9102 3.39322L71.5729 3.1334H70.8699L70.2641 3.38372L70.1003 3.57489L69.985 3.8252L69.8603 4.03644L69.6869 4.11354L69.503 4.047L69.1478 3.74916L68.9649 3.64354L68.6668 3.60552L67.6181 3.67206L67.4267 3.72909L67.3115 3.86428L67.3591 4.07552L67.321 4.13255L67.302 4.19064L67.2819 4.24873L67.2534 4.31527L67.4743 4.34379L67.561 4.517L67.4933 4.68071L67.2914 4.69022L67.2439 4.62262L67.1952 4.60361L67.1477 4.62262L67.08 4.67121L67.0219 4.74831L67.0039 4.82541V4.92152L66.9362 5.02714L66.8485 5.12325L66.7523 5.1993L66.6466 5.26795L66.4351 5.3535V5.39152L66.4542 5.46863L66.4933 5.51721V5.60276L66.3876 5.74746L66.3199 5.8235L66.2533 5.85308L66.0218 5.83301L65.9647 5.85308L65.9351 5.93018V6.04424L65.9161 6.15092L65.7617 6.23647L65.7131 6.31463L65.675 6.40018L65.637 6.4382L65.618 6.47728L65.4541 6.69802L65.4065 6.78463L65.3769 6.82265V6.87018L65.4351 6.98636L65.4446 7.17859L65.3093 7.32328L65.1359 7.43841L65.0397 7.54402L65.194 7.62113L65.2511 7.63063V7.72569L65.1644 7.82286L65.1359 7.9665L65.1264 8.11965L65.0778 8.23583L64.9911 8.27385L64.75 8.28335L64.6528 8.31187L64.7014 8.47558L64.6147 8.73434L64.6634 8.90756L64.6063 8.95509L64.5481 9.05225L64.5101 9.08077L64.5291 9.1283L64.5576 9.24342L64.4625 9.2825L64.2405 9.48529V9.57084L64.3853 9.69653L64.4519 9.73455V9.81059L64.3948 9.82961L64.3663 9.84967L64.3367 9.87819L64.2986 9.90776V9.98486L64.3853 10.101L64.6348 10.1771L64.7596 10.2436L64.7025 10.3788L64.6634 10.4359L64.5968 10.4939L64.693 10.5615L64.7691 10.6376L64.7987 10.7348L64.75 10.8298L64.7892 10.9745L64.8462 11.0696L64.9139 11.1181L64.9911 11.1572V11.2428L64.8854 11.2238L64.7987 11.2523L64.7405 11.3389L64.7215 11.492L64.75 11.6367L64.8082 11.6653H64.8854L64.9816 11.7328L65.0207 11.8099L65.0978 12.1553L65.1359 12.2229L65.194 12.299L65.2036 12.3571L65.1074 12.3951L65.1549 12.7415L64.9435 12.9622L64.712 13.1355L64.693 13.3182L64.5587 13.5579L64.5386 13.5865L64.5291 13.8748L64.491 13.9519L64.4044 13.9709L64.3473 13.8558L64.2606 13.7597L64.1644 13.6931L64.0587 13.6636L63.953 13.6741L63.8377 13.635L63.6644 13.3752L63.5491 13.2696L63.4434 13.24H63.2119L63.0967 13.202L62.9899 13.1059L62.7594 12.808L62.7024 12.6834L62.7214 12.6739L62.789 12.4246L62.7986 12.3275V12.2028L62.789 12.1057L62.769 12.0296L62.6928 11.9715L62.5966 11.8744L62.2118 11.6822L62.1061 11.5681L61.8175 11.1731L61.605 11.0094L61.3841 10.9523L60.3153 10.9808L60.1419 11.0379L59.68 11.2776H59.5838L59.459 11.191L59.3819 11.1815L59.2856 11.2481L59.1609 11.4783L59.0837 11.566L58.9495 11.604L58.256 11.4878L58.1598 11.3547L58.0921 11.172L57.9674 10.9513L57.8321 10.8541L57.6693 10.8351L57.4959 10.8636L57.3426 10.9217L57.1883 11.0653L57.1111 11.2005L56.9959 11.3347L56.814 11.4023L56.6121 11.4213L56.5064 11.4783L56.4292 11.623L56.3235 11.9208L56.2083 12.1226H56.054L55.7178 11.9884L55.5455 12.0465L55.2463 12.3064L55.0919 12.3644L54.9196 12.2683L54.8234 12.0476L54.7558 11.7783L54.6691 11.5385L54.5147 11.3558L54.39 11.2597L54.3414 11.1255L54.409 10.8076L54.3794 10.4908L54.2938 10.289L54.0327 9.90459L53.8699 9.46205L53.7737 9.30785L53.5908 9.19167L53.2832 9.11563L53.1299 9.12513L52.9755 9.18217L52.8223 9.33637L52.6394 9.72082L52.4956 9.88347L52.2937 9.96057H51.8211L51.6002 10.0081L51.3602 10.1433L51.1192 10.3366L50.9078 10.5953L50.7534 10.9312L50.7344 11.1329L50.7534 11.5955L50.7154 11.7772L50.58 11.9304L50.5039 11.8068L50.4458 11.5765L50.3887 11.4213L50.2925 11.4118L50.1868 11.4783L50.0811 11.5269L49.9553 11.4688L49.8792 11.3442L49.8305 11.172L49.7153 10.4887L49.6963 10.2383L49.6286 10.0757L49.4267 9.9986L48.7438 9.85495H48.5313L48.3294 9.92255L47.9435 10.1824L47.7416 10.3746L47.6454 10.4316L47.5503 10.3936L47.5016 10.2964L47.4149 9.96057L47.3674 9.83594L47.2712 9.73032L47.0502 9.59513L46.953 9.49902L46.8853 9.36383L46.8758 9.2487V9.14309L46.8473 9.01846L46.732 8.89383L46.5777 8.88432L46.4054 8.96987L46.2415 9.11457L46.0882 9.34587L45.8377 9.81588L45.6559 9.97958L45.511 10.0377H44.7604L44.6156 9.9986L44.4708 9.92255L44.0088 9.42192L43.845 9.33531L43.6716 9.36383L43.5268 9.49902L43.4316 9.70075L43.383 9.95001V10.1042L43.3925 10.2468L43.402 10.382L43.364 10.5457L43.3248 10.6217L42.9696 11.1023L42.8925 11.1794L42.7677 11.1984L42.662 11.1509L42.5373 11.0537L42.4316 10.9397L42.3829 10.8425L42.6335 10.2267L42.6906 9.91938L42.5944 9.6585L42.4696 9.59091L42.0362 9.5814L41.2084 9.24448L40.9389 9.23497L40.794 9.31208L40.5815 9.54232L40.4187 9.62893L40.2644 9.63844L39.8119 9.56133L39.5043 9.65745L39.3415 9.67752L39.2358 9.58035L39.2834 9.36911L39.3986 9.09978L39.4176 8.88855L39.1967 8.83151L39.0138 8.85052L38.8595 8.83151L38.7537 8.72484L38.6956 8.48508V8.15767L38.7157 7.89785L38.6671 7.70562L38.4651 7.5905L38.1469 7.5229L37.4735 7.49333L36.7029 7.76265L36.1933 7.67605L34.7397 7.03178L33.0557 6.97474L32.95 6.91665L32.8538 6.78252L32.8348 6.66634L32.8538 6.55227V6.46566L32.7671 6.41708L30.9869 6.34103L30.7564 6.23436L30.2659 5.79182L30.0354 5.74429L29.5058 5.7633L27.8694 5.45595L27.2245 5.58058L24.6842 5.54256L23.3944 5.19719L23.0477 5.20669L22.701 5.32182L22.018 5.68831L19.872 6.03263L19.7092 6.02312L19.2367 5.90905L17.3307 6.0622L17.1679 6.12029L17.004 6.2935L16.726 6.70647L16.6107 6.94728L16.4278 7.75421L16.2164 8.06155L15.3506 8.6583L14.2057 9.68702L13.8981 9.73455L13.6772 9.53282L13.4657 9.273L13.1581 9.14731L12.9657 9.1283L12.4265 8.96459H12.2532L11.5026 9.15682L11.4064 9.2054L11.3292 9.29201L11.233 9.45466L11.2235 9.55077L11.2721 9.64689L11.4836 10.2331L11.5026 10.3492L11.4645 10.5415L11.3969 10.5795L11.3292 10.5225L11.3387 10.5985L11.3874 10.7717L11.5893 10.8488L11.7235 10.8974L11.8293 10.9745L11.714 11.2248L11.7235 11.3019L12.0312 11.7635L12.0893 11.9082L12.0026 11.9473L11.9445 12.0339L11.935 12.1585L11.9836 12.3211L11.8388 12.3792L11.7045 12.5229L11.5988 12.7056L11.5607 12.8693L11.6083 13.1281L11.7235 13.1957H11.8673L11.9931 13.2823L12.417 14.2138L12.5893 14.4251L12.9741 14.6754L13.3399 15.0408L13.4266 15.1855L13.3019 15.2521L13.2733 15.3682L13.3885 15.608L13.5915 15.9153L13.6592 16.078L13.7448 16.5871V16.6642L13.7163 16.7603L13.7744 16.8078L13.8706 16.8469L13.9668 16.9134L14.0535 17.0391L14.0725 17.1342L14.082 17.2408L14.1212 17.395L14.2364 17.5862L14.7565 18.0668L15.3918 18.4227L15.488 18.5769L15.3918 18.7892L15.1614 18.8367H14.9108L14.7576 18.9043L14.5546 18.7892L14.3432 18.8177L14.1698 18.9529L14.0736 19.1642L14.0831 19.3955L14.1994 19.5497L14.3812 19.6352L14.5926 19.6637V19.7408L14.4964 19.9521L14.6022 20.1348L14.8136 20.2594L15.0155 20.3069L14.9679 20.5858L15.025 20.8361L15.2174 21.3071L15.0451 21.6145L15.1212 22.1817L15.1698 22.3454L15.2079 22.3834L15.1984 22.4119L15.1022 22.5471L14.9574 22.7003L14.4668 22.9611L14.4478 23.1048L14.4573 23.3361L14.4478 23.4892L14.4087 23.6139L14.2353 24.0089L13.8315 24.1821L12.4456 24.2011L12.1855 24.2866L12.0513 24.3542L11.9455 24.4599L11.8589 24.6331L11.7531 24.97L11.6474 25.1231L11.0406 25.7769L10.8197 25.9596L10.4063 26.2775L10.0607 26.5469L8.30896 28.4406L8.0785 28.7965L7.79941 29.0173L7.49178 29.3532L6.66404 30.5752L6.34689 30.9026L6.30778 30.9987L6.25069 31.2384L6.21158 31.3261L6.14498 31.3926L6.00966 31.4412L5.94306 31.4898L5.86589 31.5764L5.3944 32.4319L5.2686 32.5661L5.18297 32.6051L5.01912 32.6432L4.93243 32.7192L4.87534 32.8259L4.74003 33.2008L4.16283 33.9782L3.97043 34.4313L4.1142 34.8538L4.16283 35.0259L4.2104 35.5265L4.24 35.6607L4.25903 35.7293L4.35523 35.892L4.51803 36.0641L4.56666 36.1518L4.5952 36.3335L4.70091 37.4108L4.67237 37.5829L4.54763 37.9389L4.44191 38.3529L4.31611 38.6022L4.27806 38.7468L4.32563 38.8039L4.36474 38.7754L4.47046 38.6507L4.58568 38.7373H4.57617L4.54763 38.7468L4.79711 38.9201L5.01806 39.2179L5.16183 39.3246L5.50857 39.5168L5.60477 39.6309V39.728L5.53712 39.9583L5.5276 40.1114L5.55615 40.2171L5.68089 40.4283L5.71049 40.4853L5.6238 40.668L5.46946 40.6015L5.29714 40.4473L5.16183 40.3808L5.0762 40.3522L4.93137 40.1505L4.8542 40.0734L4.76751 40.0629L4.59414 40.1209L4.31506 40.1019L4.15225 40.1209L3.9884 40.1019L3.79705 39.9773L3.50845 39.6604L3.35411 39.6119L3.19131 39.7661L3.13316 39.9583L3.07608 40.2266L3.03696 40.4959V40.6881L2.92174 40.7948L2.62362 40.8423L2.48936 40.9479L2.32656 41.4391L2.2293 41.6408L2.21979 41.6978V41.852L2.1997 41.9186L2.1331 42.0252L1.95022 42.1784L1.87305 42.284L1.82547 42.4287V42.5153L1.83499 42.6114L1.85402 43.0054L1.83499 43.0835L1.77684 43.2177L1.71024 43.3138L1.64259 43.3708L1.5855 43.4479L1.5559 43.6021L1.56542 43.8514L1.51784 44.0922L1.42164 44.3034L1.2969 44.4661L1.2007 44.5242L0.998785 44.5918L0.902584 44.6583L0.845498 44.7354L0.768327 44.9181L0.719698 45.0047L0.219667 45.4082L0.103381 45.5909L0.0843525 45.8222L0.171039 46.2838L0.142496 46.4665L0.0558095 46.6492L0.0462952 47.4751L0.229182 47.5047H0.24821L0.325382 47.4171L0.575926 47.322L0.835984 47.36L1.10556 47.4952L0.990328 47.8406V48.0233L1.20281 48.0138L1.26096 48.0233L1.31804 48.1194V48.2345L1.29901 48.3697L1.30853 48.5324L1.39521 48.7637L1.76944 49.3414L1.81807 49.389L1.87516 49.3985L1.9333 49.3794L1.99145 49.3319L2.01999 49.3224H2.07707L2.23142 49.3794L2.35616 49.409L2.47139 49.3985L2.61516 49.3224H2.64476L2.67331 49.3319L2.70185 49.3414L3.27059 50.0913L3.36679 50.3216L3.47251 50.6881L3.60677 50.9574L3.64482 51.006H3.66385L3.76957 50.9479H4.31823L4.462 50.9004L4.58674 50.8137L4.721 50.7747L4.8468 50.8518L4.87534 50.9099L5.15443 51.063L5.38489 51.2742L5.4906 51.3989L5.56777 51.5531L5.62592 51.7643L5.59737 51.8794L5.54875 51.9851L5.53923 52.1678L5.40497 52.3304L5.47263 52.4656L5.75066 52.6959L5.905 52.6473L6.04032 52.5512L6.09846 52.398L6.02129 52.1583L6.08789 52.0231L6.20312 52.0136L6.33844 52.0812L6.45366 52.1678L6.57841 52.2438L6.70315 52.2839L6.82789 52.2649L7.15561 52.0041L7.26132 51.8118L7.4347 51.2827L7.58904 51.0524L7.74338 50.9753L7.91676 51.0049L8.44639 51.1876L8.58064 51.2837L8.89779 51.6587L9.26462 51.9671L9.43693 52.1688L9.49508 52.1878L9.55216 52.1973H9.61031L9.66739 52.1783H9.70651L10.2076 52.4276L10.3609 52.4181L10.419 52.3801L10.4666 52.322L10.5047 52.2554L10.5438 52.1783L10.6199 52.1107L10.7066 52.0822L10.9952 52.0241L11.1389 52.0727L11.6305 52.1297L11.9477 52.2354L12.1305 52.2554L12.6602 52.2259L12.7849 52.2935L13.1803 52.6578L13.2279 52.8311H13.3917L14.1613 52.5131L14.4013 52.5226L14.5271 52.6188L14.9108 52.7244L15.0652 52.792L15.3432 53.0613L15.4785 53.0898L15.488 53.0803L15.9405 53.2535L16.1044 53.263L16.6424 52.9853L17.0177 52.9747L17.3159 52.7149L17.4892 52.6188H17.633L18.0664 52.7244L18.4988 52.7149L18.6436 52.7529L18.9988 52.9641L19.1923 53.1183L19.3075 53.2715L19.3561 53.4542L19.3657 53.6084L19.4037 53.752L19.538 53.9052L19.798 54.0689L20.4144 54.3097L20.5201 54.4058L20.6163 54.54L20.8763 55.0026L21.0592 55.2814L21.203 55.3775L22.1079 55.2244L22.5889 55.0131L22.9071 54.7047L23.6482 53.4743L23.9748 53.244L27.7372 52.8406L28.2383 52.6378L28.6421 52.5902L28.8726 52.4846L28.9973 52.4561L29.3642 52.4941L29.8547 52.3505L30.5957 52.341L30.9626 52.1783L31.0397 52.0632L31.212 51.6693L31.3083 51.5446L31.5112 51.3714L31.6074 51.2658L31.7227 51.025L31.8474 50.669L31.9246 50.3036L31.9151 50.0438L31.9732 49.6688L32.0303 49.6974L32.1741 49.7069L32.3189 49.6688L32.5684 49.5442L32.6931 49.5051L33.0589 49.4861L33.1836 49.4576L34.1467 49.2464L34.3771 49.1312L34.3877 49.0341L34.4163 48.8904L34.5029 48.7552L34.7524 48.5926L34.7916 48.4384L34.8402 48.3412L34.9935 48.3993L35.0992 48.5144L35.1859 48.6581L35.2821 48.7838L35.4269 48.8503L35.5812 48.8408L35.6679 48.7637L35.6965 48.6105V48.3898L35.6584 48.1691L35.6098 48.0339L35.6003 47.9282L35.6774 47.8131H35.725L35.8498 47.8617H35.9079L35.9756 47.7941L35.9946 47.7086L36.0231 47.641L36.1098 47.6114L36.3593 47.7276L36.6098 47.9388L36.8794 48.1015L37.1691 48.0539L37.2462 47.9768L37.3033 47.9863L37.352 48.0149L37.4376 48.0054L37.5338 48.0244L37.5729 47.9958L37.5634 47.9388L37.5338 47.8712L37.5243 47.8226V47.7466L37.5052 47.6505L37.5148 47.5639L37.6014 47.5354L37.6786 47.5639L37.8414 47.661L38.6597 47.9684L38.9091 47.9779L39.1977 47.8237L39.6597 47.247L39.9377 47.1034L40.0826 47.1414L40.3035 47.3431L40.4092 47.3811L40.534 47.3146L40.9959 46.9196L41.1693 46.6798H41.4875L41.5742 46.6608L41.7761 46.5256L41.9389 46.5446L41.958 46.8425L42.1123 46.9196L43.0648 46.9101L43.3238 47.0347L43.8154 47.3991L43.9306 47.4963L44.1716 47.8617L44.2298 47.9187L44.4031 48.1796L44.7118 48.3042L45.3947 48.3909L45.5491 48.468L45.6738 48.6116L45.7119 48.8133L45.5575 49.2654L45.6633 49.352L45.8356 49.3615L45.9519 49.333L46.1918 49.1312L46.3166 49.1122L46.3747 49.3045L46.4033 49.5252L46.4804 49.6593L46.6052 49.6974L46.7881 49.6593L46.9509 49.5632L47.0756 49.4576L47.2003 49.371L47.5566 49.333L47.6919 49.352L47.7691 49.4481L47.7881 49.6688L47.73 49.8991L47.6443 50.0047L47.5386 50.0723L47.4223 50.2159L47.3748 50.3797L47.3938 50.5423L47.4805 50.6384L47.6443 50.6099L47.7596 50.4758L47.8262 50.3026L47.9224 50.1684L48.0957 50.1399L48.211 50.2265L48.2881 50.3807L48.2786 50.5529L48.1539 50.6976L48.3748 51.1496L48.47 51.2457L48.6254 51.3513L48.7026 51.3418L48.7311 51.2362V51.044L48.7882 50.8042L48.933 50.3913L49.1053 50.3142L49.3559 50.3237L50.0578 50.612L50.5874 50.6215L50.8665 50.6701L51.078 50.8148L51.1266 50.9014L51.1456 50.988L51.1551 51.0641L51.1742 51.1412L51.2989 51.439L51.357 51.7474L51.3666 51.815L51.4141 51.891L51.5399 52.0062L51.7418 52.3632L51.9913 52.6325L52.2609 52.8437L52.4914 52.9398L52.7694 52.8828L53.1066 52.4403L53.3477 52.3251H53.4819L53.5876 52.3642L53.6838 52.4508L53.7705 52.5945L53.8276 52.7687L53.8953 53.1616L53.9534 53.3253L54.0591 53.412L54.3572 53.5081L54.4344 53.5651L54.4059 53.7193L54.2906 53.882L54.1458 54.0362L54.0507 54.1608L53.983 54.3625V54.4871L54.0602 54.5642L54.3202 54.6604L54.4164 54.7459L54.445 54.8716L54.3583 55.0152L54.1278 55.3131L54.0898 55.668L54.0993 56.0725L54.0221 56.495L53.8202 56.8414L53.6289 57.1012L53.5327 57.399L53.6289 57.8511L53.6955 57.9947L53.8107 58.3317L53.8783 58.4478L54.0126 58.5535L54.0707 58.4954L54.1469 58.3707L54.2727 58.3126L54.3879 58.3707L54.5221 58.6105L54.7526 58.7647L54.8107 58.8809L54.8488 59.015L54.9165 59.1301L55.0317 59.1977L55.1469 59.2262L55.2621 59.2738L55.3584 59.4185L55.3964 59.5906V59.7543L55.4154 59.918L55.5211 60.0902L55.6269 60.1863L55.7431 60.2444L55.8679 60.2539L55.9926 60.2148L56.1269 60.0902L56.2326 59.9466L56.2717 59.7733L56.3478 59.6001L56.5022 59.5811L56.6555 59.5906L56.8003 59.6487L56.925 59.7638L57.0308 59.9561L57.0984 60.2159L57.1079 60.4757L57.0212 60.6679L56.8288 60.764L56.8003 61.0049L56.8764 61.591L56.8288 61.8699L56.7231 62.0051L56.5593 62.0536L56.3478 62.0727L56.3288 62.1012V62.1783L56.3478 62.2163L56.5794 62.6588L56.646 62.7264L56.7326 62.6588L56.8003 62.5141L56.8859 62.3895L57.0308 62.38L57.1365 62.4465L57.2232 62.5627L57.2802 62.7159L57.2898 62.8891L57.2327 63.0433L57.1365 63.1489L57.0498 63.2735L56.9927 63.6865L56.9536 63.8597L56.9441 64.0034L57.0117 64.128L57.0593 64.1385L57.2517 64.1185L57.3194 64.1576L57.4346 64.2917L57.5012 64.3498L57.627 64.3973L57.8765 64.4163L57.9917 64.4649L58.1164 64.5895L58.2898 64.8779L58.4336 64.9835L58.6746 65.0215L58.8956 65.0025L59.1165 65.031L59.3374 65.2137L59.3755 65.2908L59.4337 65.4936L59.4717 65.5507L59.5394 65.5602L59.606 65.5126L59.6831 65.4831L59.7698 65.5317L59.7889 65.6088V65.8485L59.7984 65.9541L59.828 66.0312L59.9136 66.1939L59.9527 66.2805L59.9622 66.4833L59.8946 67.1761L59.866 67.3008L59.828 67.4064L59.7984 67.512V67.6556L59.828 67.7708L59.9242 68.001L59.9443 68.1066L59.8576 68.3474L59.6842 68.376L59.5499 68.3855L59.5785 68.6347L59.6842 68.7699L60.0214 68.9136L60.0309 68.9421L60.0701 69.0477L60.0986 69.0667L60.1472 69.0477L60.2424 68.9907H60.291L60.3491 69.0382L60.3967 69.1058L60.4929 69.298L60.4348 69.3941L60.7815 69.6719L60.9063 69.8261L60.9834 69.7585L61.0987 69.7395L61.2234 69.7585L61.3291 69.8261L61.1462 70.162L60.9443 70.3542L60.6081 70.4123L59.7032 70.3542L59.5785 70.3827L59.4442 70.4598L59.1556 70.7091L59.0023 70.7291L58.848 70.5559L58.829 70.4788V70.2665L58.8195 70.1609L58.7803 70.0648L58.6175 69.8145L58.2127 69.43L58.1164 69.2579V69.5652L58.0298 69.7289L57.8765 69.787H57.665L57.6175 69.8536L57.6555 70.1229L57.5974 70.3056L57.4917 70.4123L57.3669 70.4598L57.2316 70.4503L57.1164 70.3827L57.0107 70.2391L56.905 69.9993L56.7897 69.9032L56.683 69.8641L56.443 69.8166L56.3278 69.768L56.2802 69.692L56.2707 69.6054L56.2802 69.5188L56.3278 69.4321L56.3669 69.3561L56.3859 69.279L56.3764 69.2019L56.3373 69.1343L56.1544 69.1058L55.9916 69.1924L55.8478 69.3561L55.5106 69.8652H55.4144L55.2801 69.6634L55.0972 69.279L54.9915 69.2399L54.8573 69.4712L54.8287 69.6054L54.8668 69.8261V69.9222L54.8097 70.0669L54.7706 70.0859L54.7135 70.0669L54.6173 70.0954L54.3382 70.4028L54.1648 70.5084L54.0295 70.4028V70.2877L54.0781 70.182L54.1447 70.0764L54.1934 69.9708L54.2124 69.8367L54.2029 68.9041L54.1543 68.6632L54.0295 68.509H53.8667L53.1923 68.8935L52.7789 69.0477L52.2112 69.4321L52.0569 69.6719L52.0083 69.9803L52.0664 70.3838L52.2006 70.9129L52.2102 71.0861L52.1626 71.2879L52.1045 71.4505V71.6047L52.2387 71.7769L52.6912 72.2004L52.7292 72.4412L52.6425 72.7L52.4692 72.9989L52.2091 73.2978L52.151 73.471L52.1711 73.7393L52.3053 74.2209L52.2863 74.4416L52.0939 74.5282L50.7566 74.8746L50.6213 74.9613L50.5346 75.1239V75.3066L50.6403 75.6911L50.6688 75.8928L50.6593 76.1136L50.6118 76.2572L50.5156 76.3533L50.3718 76.4399L50.1508 76.4885L50.0927 76.5371V76.6036L50.1117 76.7008L50.1212 76.8159L50.0927 76.9215L49.8897 77.0377L49.3791 77.0853L49.2544 77.287L49.3125 77.4898L49.2639 77.5764L49.043 77.6429L48.9087 77.7295L48.822 77.8161L48.6486 78.0854L48.5916 78.2111L48.6581 78.2872L48.7734 78.3548L48.8696 78.4604L48.9182 78.6146L48.9277 78.7688L48.9563 78.9219L49.062 79.0666L48.8601 79.1628L48.8125 79.2018L48.7639 79.2979V79.3265L48.784 79.3455L48.8315 79.7109L48.7935 79.8355L48.6296 79.9126L48.1391 79.8936L47.5619 79.7394L47.0132 79.7014L46.6094 80.0088L46.5417 80.1334L46.4847 80.2686L46.4656 80.3457L46.5713 80.4703L46.7637 80.4513L46.9847 80.5759L47.1295 80.7777L47.0904 80.9889L47.3124 81.5761L47.4657 81.8444L47.6391 81.9595L47.7638 81.9986L48.0334 82.1528L48.7174 82.326L49.3527 82.6619L50.3728 82.8921L50.6614 82.8541L50.9025 82.8446L50.9976 82.8055L51.0843 82.7094L50.8729 82.6133L50.8158 82.5658L50.7767 82.4887L50.7576 82.3926L50.7767 82.306L50.9976 82.2003L50.9881 82.0377L50.9976 81.8835L51.1995 81.836L51.3148 81.874L51.5167 82.0187L51.6901 82.0472L51.7862 82.1148L51.911 82.2489L52.0653 82.3355L52.2377 82.2679L52.2768 82.1908L52.2958 81.9796L52.3434 81.8835L52.4015 81.8455L52.4681 81.8264L52.6415 81.8169L52.7472 81.7589L53.1415 81.4325L53.4682 81.3364L53.6024 81.2794L53.7081 81.1642L53.7663 81.1347L53.9492 81.1252L53.9872 81.0966L54.0158 81.0195L54.0834 80.9435L54.1987 80.8474L54.3625 80.7608L54.4873 80.7513L54.612 80.7798H54.7748L54.8425 80.7513L54.9101 80.7027L54.9672 80.6456L55.0158 80.5875L55.0824 80.54L55.1691 80.559L55.2558 80.6066L55.333 80.6266L55.9197 80.6837L56.9885 81.0681L57.3437 81.386L57.4304 81.4336L57.6027 81.5973L57.7285 81.9722L57.7665 82.3957L57.6703 82.7031L57.7179 82.7707L57.7285 82.8478L57.7084 82.9238L57.6703 83.0009L57.7856 83.0294L57.9198 82.9914L58.0456 82.9238L58.1894 82.7802L58.1989 82.7707L58.1894 82.7517L58.1799 82.6651L58.1989 82.5499L58.2856 82.2901L58.2951 82.2046L58.3532 82.0504L58.3818 81.9543L58.3913 81.8581L58.3723 81.3966L58.3427 81.1663L58.2856 80.9635L58.1799 80.8484L58.3332 80.8579L58.4103 80.7238L58.4008 80.5126L58.3427 80.3393L58.2274 80.2052L58.1704 80.2908L58.1312 80.4735L58.0837 80.6372L58.0456 80.4545L57.997 80.4165L57.9399 80.4259L57.8818 80.4069V80.446L57.8437 80.484L57.7951 80.4935L57.776 80.446V80.1957L57.6513 80.2253L57.6323 80.3309L57.6418 80.465L57.6122 80.5611L57.5255 80.5707L57.4388 80.5126L57.3712 80.4259L57.2559 80.1661V80.07L57.3712 80.032L57.4198 79.9834L57.4578 79.8788L57.5054 79.7722L57.5826 79.7246L57.6883 79.638L57.9388 79.2441L58.035 79.1195L57.8331 79.3212L57.7168 79.3983L57.572 79.4268L57.4282 79.4173L57.3225 79.3793L57.1301 79.2832L57.1978 78.792L57.1777 78.2629L57.2263 77.8299L57.4864 77.6281L57.4293 77.5035L57.3902 77.4264L57.3712 77.3398L57.3807 77.1771L57.4198 77.0419L57.5636 76.8508L57.5921 76.7642L57.5636 76.7156L57.4578 76.5719L57.4293 76.4948L57.4483 76.4082L57.4864 76.3512L57.5255 76.3417L57.5636 76.4378L57.6122 76.4853L57.775 76.6195L57.8035 76.63L57.8236 76.649L57.8712 76.7156L57.9293 76.8413L57.9188 76.9078L57.8712 76.9944L57.8236 77.1676L57.8712 77.6873L57.8522 77.7633L58.0255 77.8594L58.1693 78.0897L58.256 78.3875L58.2465 78.6759L58.3427 78.5892L58.5541 78.5121L58.6693 78.4456L58.6302 78.359V78.3305L58.6493 78.3115L58.6693 78.2439L58.8226 78.321L58.9569 78.2534L59.0721 78.1478L59.2074 78.0897L59.2455 78.0517L59.1884 77.9746L59.0721 77.8594L58.8702 77.7823L58.7634 77.7158L58.7063 77.5711L58.7539 77.3503L58.9178 77.2352L59.1292 77.1972H59.3026L59.3216 77.1782L59.3406 77.1296L59.3597 77.0821L59.4083 77.0631L59.4749 77.0821L59.4844 77.1201L59.4749 77.1687L59.4939 77.2067L59.6578 77.3218L59.7159 77.3989L59.754 77.5045L59.8015 77.2067L59.7349 77.1201L59.6768 77.005L59.6387 76.8613L59.6483 76.6786L59.7053 76.5244L59.773 76.4948L59.8015 76.5624L59.754 76.6776V76.7547L59.8311 76.8508L59.9073 76.9754L59.9464 76.7251L59.9654 76.4558L60.0225 76.235L60.1959 76.1484L60.3787 76.2255L60.735 76.5138L60.8027 76.4758L60.8217 76.4283L60.8693 76.4473L60.9179 76.4853L60.9369 76.5043L60.9951 76.4948L61.0046 76.4568V76.3987L61.0331 76.3227L61.0426 76.2551L61.0712 75.9657L61.1103 75.8411L61.1674 75.7354L61.235 75.6583L61.2921 75.6774L61.3407 76.2931L61.3217 76.4378L61.8228 76.0333L62.2552 75.6013L63.102 74.4765L64.0449 73.5724L64.1115 73.4182L64.2659 72.9851L64.3325 72.8985L64.4583 72.8309L64.564 72.6778L64.7268 72.3599L65.2649 71.6005L65.4858 71.1579L65.5249 71.0523V70.9277L65.4668 70.8411L65.2934 70.726L65.2543 70.6689L65.3505 70.5242L65.7638 70.5538L65.8886 70.4387L66.2057 70.0162L66.2258 69.9676L66.2924 69.6318L66.321 69.5642L66.3506 69.5166L66.3696 69.4976L66.4076 69.468L66.3696 69.4015L66.3115 69.3434H66.2829L66.2248 69.1227L66.1 68.8438L66.0715 68.7002L66.119 68.6041L66.3506 68.2862L66.4468 68.1996H66.5229L66.84 68.2767L66.9362 68.2482L67.3887 67.9302L67.4955 67.8912L67.5811 67.9302L67.6487 67.9398L67.8316 67.7856L67.8982 67.738L68.0716 67.719L68.3898 67.6134L68.8031 67.5553L69.1975 67.4307H69.4089L69.9385 67.5743L70.0823 67.6799L70.1404 67.5933L70.2366 67.6609L70.4481 67.6894L70.5538 67.7475L70.6595 67.6609L70.9957 67.4782L71.15 67.4402L71.2462 67.3441L71.5073 66.93L71.6226 66.8339L71.6321 66.7959L71.7758 66.5752L71.834 66.4315L71.8044 66.3544L71.5634 66.1622L71.4968 66.1242L71.4481 66.0566L71.4291 65.8929L71.4196 65.8263L71.3329 65.5475L71.4481 65.5961L71.5348 65.7397L71.65 66.0186L71.7558 66.1041L71.852 66.1717L71.9397 66.1432L71.9682 66.1147L71.9778 66.0756L72.1226 65.8453L72.1702 65.7873L72.2272 65.7492L72.3721 65.6911L72.4292 65.6426L72.4873 65.5084L72.5349 65.3447L72.6025 65.2782L72.6987 65.4218L72.3435 65.951L72.2463 66.0376V66.1432L72.1406 66.384L71.7166 67.0959L71.6395 67.2881L71.668 67.4423L71.7262 67.4814L71.8128 67.4909L71.9767 67.4814L72.0444 67.5004L72.1501 67.606L72.2072 67.644L72.3805 67.6155L72.4577 67.4814L72.5158 67.3261L72.6512 67.2596L73.1131 67.2205L73.8542 67.5099L74.1809 67.5574L74.5181 67.4909L74.6048 67.4423L74.7781 67.3261L74.8352 67.2585L74.9029 67.1149L74.8934 67.0473L74.8553 66.9617L74.8352 66.7695L74.8934 66.2794L74.8648 66.2023L74.5752 65.8179V65.52L74.6724 65.2792L74.8352 65.1155L75.0181 65.0585L75.1915 64.9328L75.3257 64.635L75.3934 64.3075L75.3638 64.0678L75.201 64.1639L75.0276 64.222L74.8923 64.1829L74.8247 63.9896L74.8638 63.808L74.9695 63.6348L75.1904 63.3749L74.9399 63.3274L74.5942 63.3749L74.3532 63.2693L74.4103 62.7602L74.4684 62.6831L74.5741 62.5004L74.6323 62.3177L74.535 62.2311L74.4959 62.2121L74.4578 62.1635L74.3997 62.1054L74.2083 62.0579L74.1692 61.9998L74.1787 61.346L74.1016 61.2108L73.7643 61.1242L73.6111 61.0281L73.4958 60.9035L73.4472 60.7788L73.4662 60.7207L73.5719 60.519L73.6015 60.481L73.6777 60.519L73.6872 60.6056L73.6491 60.8264L73.7168 60.9605L74.1883 61.1918L74.294 61.3069L74.3225 61.3935V61.5087L74.3426 61.7199L74.3997 61.892L74.4769 61.9406L74.5731 61.9691L74.6788 62.0653L74.794 62.3547L74.7655 62.624L74.554 63.095L74.6693 63.2197L74.813 63.2387L75.1492 63.1816L75.3606 63.2102L75.4093 63.2873L75.3511 63.4024L75.1207 63.7488L75.0921 63.8935L75.1693 63.9896L75.553 64.0572L75.6302 64.1723L75.6397 64.3361L75.6017 64.5568L75.4378 64.9508L75.2359 65.2771L75.0921 65.6235L75.1207 66.0851L75.1978 66.2773L75.2845 66.4305L75.3511 66.5942L75.3807 66.8054L75.4188 66.9892L75.515 67.2099L75.6397 67.4022L75.7454 67.5268L75.8702 67.5838L76.3427 67.6799L76.4675 67.7665L76.5732 68.17L76.6789 68.2851L76.8618 68.0549L76.9379 68.0454L77.0922 67.9873L77.1789 67.9778L77.255 67.9398L77.3808 67.7856L77.4675 67.757L77.5066 67.7856L77.6219 67.9778L78.1325 68.2566L78.6906 68.1795L79.7203 67.5923L79.9032 67.6313L80.1146 67.5257L80.3155 67.3715L80.4984 67.2849L80.4117 67.4676L80.306 67.5733L80.1907 67.6599L80.0755 67.7845L79.9413 67.8711L79.5839 67.9102L79.4402 68.0052L78.901 68.4583L78.6896 68.7456L78.8344 68.9484L78.6219 69.1702L78.3249 69.2948L77.9972 69.3233L77.679 69.2463L77.2656 68.978L76.4284 68.7858H76.274L75.8311 68.8629L75.1767 68.7182H74.5223L74.4166 68.6801L73.9737 68.4108L73.7147 68.3348L72.3763 68.4393L72.2611 68.3823L72.0581 68.1616L71.8171 67.9693L71.9429 68.2291L72.8372 69.1427L72.9429 69.1808L73.0011 69.2484L73.1734 69.7099L73.1639 69.3635L73.1734 69.2579L73.203 69.1713L73.2506 69.1142L73.3563 68.9896L73.4821 68.9315L73.6554 68.941L73.8288 68.9896L74.8965 69.4321L75.2338 69.4892L75.5224 69.4607L75.6471 69.5092L75.9939 69.9803L76.0615 70.1144L76.0034 70.1535H75.8977L75.8004 70.1725L75.3976 70.5475L75.33 70.5961L74.7517 70.7017L74.3278 70.6056L74.165 70.6246L74.0403 70.6827L73.8859 70.7978L73.7897 70.9509L73.8288 71.1242L73.9345 71.2393L74.0498 71.3164L74.184 71.3639L74.665 71.384L74.7221 71.3354L74.7031 71.2108L74.6745 71.0661L74.7126 70.9309L75.3479 71.422L75.7327 71.6237L75.9727 71.5276L76.1852 71.7103L76.4738 72.0937L76.57 72.1518L76.6757 72.1708L77.0225 72.2955L77.2149 72.3345L77.4168 72.3145L77.6472 72.2088L77.6282 72.3145L77.5796 72.3821L77.4348 72.5162L77.4739 72.5838L77.5024 72.7369L77.531 72.8235L77.5405 72.8721L77.5595 73.0158L77.569 73.0443L77.6081 73.0644L77.7043 73.0538L77.8766 73.17L79.4169 73.6115L79.7256 73.5629L79.7827 73.5248L79.9085 73.3907L79.9846 73.3326L80.0618 73.3041L81.0248 73.1309L81.3134 72.9862L81.4287 72.9577L81.6115 72.9767L82.0259 73.1203L82.0925 73.1298L82.2659 73.1203L82.3241 73.1298L82.3907 73.1784L82.4488 73.1879H82.5545L83.3622 73.0527L83.4689 72.9091L83.4013 72.5912L83.8538 72.8119L84.0176 72.927L84.0948 72.9556H84.172L84.2682 72.908L84.3252 72.8985L84.5663 72.7739L84.7206 72.4951L84.8464 72.1867L85.0187 71.9944L84.9426 72.7644L84.913 72.8985L84.8559 73.0422L85.4606 72.9556L85.635 73.0137L85.6541 73.1383L85.5684 73.2925L85.4426 73.4171L85.4913 73.4266H85.5293L85.5684 73.4361L85.6065 73.4942L85.7598 73.2724L85.9617 73.3115L86.1636 73.4942L86.3941 73.8206L86.4617 73.8776H86.9322L87.096 73.9452H87.1732L87.0189 73.715L87.096 73.5798L87.2895 73.5227L87.4914 73.5132V73.4266L87.2895 73.2925L87.299 73.1288L87.4333 72.9661L87.5971 72.8214L87.7895 72.7549L87.9143 72.87L88.1447 73.3115L88.1828 73.4847L88.1162 73.6104L88.0284 73.7255L88.0379 73.8502L88.1341 74.2262L88.1437 74.3022L88.0866 74.3994L88.0475 74.505L88.057 74.5916L88.1437 74.6296L88.1246 74.6782L88.057 74.8028L87.9132 74.9951L88.0094 75.0627L88.0665 75.0331L88.1246 74.9665L88.2113 74.9275L88.4037 74.9084L88.8371 75.0236L88.9809 75.1007L89.1152 75.2253L88.9809 75.3024L88.7209 75.3689L88.5951 75.4365L88.4798 75.388L88.4608 75.5907L88.4798 75.8506L88.4703 75.9752L88.3075 76.0037L88.2208 75.9942L88.1817 75.9372L88.1532 75.8696L88.0855 75.8125L87.9988 75.7735L87.9217 75.7545L87.8445 75.764L87.7578 75.803L87.6045 75.9087L87.4216 76.1389L87.2377 76.1959L87.1616 76.2054L87.0654 76.1864L86.9205 76.0808L86.8634 76.0618L86.7482 76.1104L86.43 76.3216L86.3148 76.3692L86.0833 76.629L86.0452 76.6966L85.7651 76.8117L85.208 77.1581L84.9384 77.1866L84.6688 77.0324L84.5441 76.8698L84.4764 76.8212L84.4098 76.8793L84.3992 76.9849L84.4574 77.0515L84.5346 77.0905L84.5726 77.1285L84.5346 77.2637L84.4373 77.3398L82.6951 78.1478L82.175 78.5037L81.9445 78.7445L81.8875 78.8206L81.8579 78.8786L81.8388 78.9748L81.8483 79.0614L81.8779 79.167L81.8674 79.2536L81.7617 79.2927L81.675 79.2832L81.5301 79.2251L81.453 79.2156L81.3377 79.2346L81.2807 79.2927L81.232 79.3698L81.1654 79.4458L81.0597 79.5324L80.9445 79.6L80.7997 79.6475L80.6168 79.6666L80.4719 79.7056L79.567 80.3974L79.3366 80.6382L79.2308 80.9266L79.2604 81.0808L79.4719 81.667L79.6442 81.6965L79.9138 81.8307L80.0776 81.8877H80.6263L80.7415 81.8212L81.0111 81.5328L81.1358 81.4462L81.2997 81.4177L82.4456 81.5138L82.7638 81.6385L83.0429 81.8212L83.5334 82.2532L83.6011 82.2922L83.7354 82.3493L83.803 82.3979L83.8897 82.5616L83.9563 82.6577L84.1487 82.7728L84.4183 83.1087L84.5335 83.2143L84.8792 83.3104L85.043 83.397L85.1096 83.5501L85.1868 83.6558L85.3602 83.6082L85.6298 83.4445L85.9184 83.3389L86.2366 83.2914L86.3708 83.3484L86.7947 83.7339L87.3244 84.0698L87.5168 84.3212L87.6415 84.7626L87.6711 85.0425L87.6997 85.1386L87.8339 85.408L87.8529 85.4756L87.8825 85.6477L87.9682 86.0713V86.3216L87.9396 86.5328L87.8921 86.7145L87.8054 86.8497L87.5073 86.9553L87.4015 87.0894L87.3339 87.2827L87.2863 87.5034L87.2673 87.5605L87.2377 87.5995L87.1806 87.6471L87.2472 87.7823L87.2863 87.9449L87.3339 88.2438L87.411 88.4646L87.4216 88.5797L87.3931 88.7529L87.3254 88.868L87.2292 88.9831L87.1626 89.1173L87.1721 89.281L87.2387 89.338L87.4893 89.3866L87.595 89.4246L87.4407 89.4922L87.0463 89.5017L86.9396 89.5398L86.8825 89.5788L86.7958 89.5883L86.633 89.5788L86.5653 89.5978L86.392 89.7225L86.3254 89.751L86.0938 89.7996L86.0653 89.7711L86.0748 89.8957L86.133 90.0203L86.9512 90.597L87.0474 90.7026L87.1827 90.8082L87.3455 90.7987L87.5094 90.7512L87.6436 90.7417L87.7303 90.8188L87.9608 91.1166L88.0094 91.2128L88.057 91.4145L88.1627 91.5106L88.7409 91.7799L88.8953 91.8179L89.4059 91.8274L89.4926 91.8179L89.6459 91.7704H89.7421L90.2231 91.9616L90.3954 91.9912L90.5497 91.9721L91.3775 91.5771L91.5498 91.5486L91.6555 91.5095L91.9166 91.3268L92.0033 91.2413L92.109 91.0585L92.1756 90.8948L92.2718 90.7797L92.6376 90.7026L92.7338 90.6266L92.8966 90.3668L92.9156 90.3287V90.2611L92.9547 90.2231L92.9642 90.1946L93.0509 90.2041H93.1566L93.33 90.2231L93.3977 90.2041L93.4749 90.0689L93.773 89.2905L94.033 88.8385L94.1102 88.7423L94.1483 88.6652L94.4559 88.2333H94.4844L94.4939 88.2428V88.2713L94.5034 88.3009L94.6959 88.0991L94.9464 87.9935L95.5627 87.8583L95.8513 87.7337L96.3905 87.3682L96.6695 87.2626L97.1992 87.3587L97.3239 87.3007L97.4296 87.2235L97.6802 87.2816L97.8144 87.2531L97.8726 87.2045L97.9202 87.1369L97.9783 87.0799L98.0639 87.0313L98.1411 87.0218L98.4012 87.0313L98.5544 87.0894L98.6506 87.2235L98.7183 87.3682L98.7944 87.4834L99.1211 87.5309L99.3325 87.195L99.4964 86.724L99.6888 86.3775L99.823 86.31L100.15 86.2328L100.284 86.1082L100.457 85.7512L100.592 85.6551L100.785 85.7702L100.834 85.7227L100.91 85.6646L100.939 85.6171L101.305 85.9054L101.257 85.5791L101.266 85.4344L101.353 85.3097L101.468 85.2612L101.718 85.2812L101.824 85.2326V85.1661L101.602 85.07L101.555 85.0214L101.525 84.9158L101.544 84.8292L101.583 84.7436L101.602 84.6179L101.67 84.5324L102.074 84.205L102.353 84.0708L102.67 84.0043H103.006L103.334 84.0613L103.892 84.2821L104.393 84.6L104.479 84.6866L104.71 84.9654L104.758 85.071L104.825 85.3119L104.979 85.389L105.508 85.2928L106.096 85.3309L106.211 85.2062L106.346 84.9559L106.519 84.7827L106.76 84.8883V84.8112L107.193 85.0806L107.877 85.2337L108.031 85.1957L108.059 85.1376L108.108 84.9559L108.136 84.8883L108.214 84.8397L108.3 84.8207L108.983 84.7922L109.532 84.5894L109.638 84.4933L109.658 84.3307L109.561 84.167L109.349 83.9367L109.3 83.7065V83.4752L109.368 82.8404L109.425 82.6091L109.512 82.3873L109.608 82.2436L109.676 82.2151L109.849 82.2056L109.917 82.1665L109.964 82.0715L109.945 82.0229L109.898 81.9754L109.868 81.8983L109.907 81.6775L110.013 81.5624L110.157 81.5233L110.34 81.5529L110.57 81.6775L110.657 81.706H110.753L111.002 81.6385L111.06 81.5233L111.002 81.2741L110.868 80.8991L110.753 80.765L110.638 80.6974L110.513 80.727L110.378 80.8706L110.262 80.9086L110.138 80.7935L109.945 80.5432L109.792 80.5147L109.338 80.6203L109.185 80.5812L108.945 80.4186L108.8 80.389L108.715 80.4186L108.647 80.4851L108.579 80.5432H108.483L108.551 80.351L108.493 80.2168L108.368 80.1777L108.243 80.2834L108.147 80.3795L107.271 80.37L107.116 80.4281L106.953 80.5907L106.742 80.7259L106.714 80.7734L106.608 81.0998L106.376 81.3976L106.098 81.4557L105.799 81.3501L105.222 81.0037L105.088 80.8981L105.031 80.7639L105.069 80.5717L105.127 80.3985L105.107 80.2929L104.925 80.2739L104.799 80.351L104.693 80.5147L104.627 80.7164L104.597 80.9181L104.578 80.9667L104.463 81.1294L104.425 81.1684L104.319 81.197L104.28 81.2646L104.27 81.3607L104.242 81.4663L104.03 81.6881L103.868 81.7937L102.51 82.1687L102.222 82.1401L101.085 81.3417L98.8811 78.0918L98.2183 76.7842L97.8134 75.6985L97.7362 75.5633L97.6495 75.4387L97.5829 75.295L97.3038 73.9579L97.2362 73.7857L97.1981 73.622L97.1601 72.9197L97.1114 72.738L97.1019 72.6514L97.1114 72.5363L97.1505 72.4306L97.2848 72.2479L97.3134 72.1993L97.64 72.0462L97.659 71.9406L97.6696 71.8159L97.7267 71.7198L97.8134 71.6712L97.8324 71.7198L97.8419 71.7959L97.8905 71.8635L97.9868 71.892H98.0629L98.7849 71.7093L99.1221 71.498L99.3822 71.1991L99.8346 70.4968L100.095 70.2274L100.152 70.1018L100.191 69.9296L100.161 69.8335L100.123 69.7469L100.095 69.6032L100.018 69.4395L99.8833 69.2378L99.8251 69.0171L99.989 68.8048L100.008 69.0065L100.085 69.2082L100.181 69.3624L100.298 69.4395L100.393 69.5356L100.451 69.5737L100.528 69.5937L100.653 69.6032L100.71 69.6223L100.557 70.0363L100.508 70.3341L100.576 70.5844L100.759 70.7471L100.912 70.7376L101.047 70.6225L101.181 70.4778L101.153 70.7566L101.047 70.9393L100.768 71.2277L100.547 71.6216L100.47 71.8138L100.287 72.0156L100.076 72.4391L99.6814 72.6514L98.8822 72.8911L98.9202 72.9968L98.9403 73.0443L98.6707 73.2175L98.4297 73.4963L98.4001 73.602L98.5354 73.6495L98.823 73.5058L99.0058 73.3717L99.2659 73.3136L99.4488 73.1605L99.7575 73.0538L99.9404 72.8616L100.133 72.5922L100.538 71.7652L100.7 71.573L101.432 70.3711L101.547 70.256L101.817 70.0732L101.932 69.9581L102.164 69.6318L102.279 69.4976L102.424 69.392L103.327 68.9294L103.578 68.6992L104.194 67.9778L104.425 67.7951L104.849 67.5553L105.416 67.2289L105.599 67.2384L106.648 67.0367L107.197 67.1138L107.485 67.0462H107.619L107.783 67.1138L107.831 67.1613L107.87 67.2099L107.937 67.3441L107.956 67.3631L108.042 67.4212V67.4782L108.033 67.5458L108.014 67.5933L108.052 67.7L108.061 67.6799L108.072 67.6134L108.149 67.5838L108.226 67.5363L108.255 67.5743V67.738H108.313L108.362 67.4117L108.506 67.1613L109.027 66.6132L109.247 66.441L109.497 66.3249L109.882 66.2488L110.199 66.0566H110.699L110.757 66.0186L110.825 65.9415L110.91 65.8643L111.036 65.8263L111.248 65.8929L111.382 65.9024L111.507 65.8263L111.612 65.9024L111.863 65.989L111.979 66.0566L112.257 66.3829L112.325 66.4305V66.6322L112.229 67.0272L112.085 67.3346L111.931 67.267H111.873V67.3536L112.065 67.4117L112.257 67.2289L112.402 66.93L112.459 66.6311L112.536 66.3629L112.68 66.1126L112.786 65.8633L112.719 65.6035L112.969 65.5644L113.372 65.1704L113.642 65.0743L113.729 65.0257L113.979 64.8135L114.066 64.7659L114.201 64.7459L115.086 64.3994L115.443 64.1217L115.587 64.0826L115.847 64.1312L116.117 64.2653L116.29 64.486L116.261 64.7649L116.434 64.6878L116.559 64.505L116.761 64.1111L117.569 62.9672L118.05 62.4582L118.31 62.362L119.301 62.5437L119.629 62.5342L120.456 62.2374L121.14 62.3525L121.226 62.304L121.419 62.3525L121.718 62.4677L121.785 62.4392L121.987 62.323L122.025 62.285L122.063 62.2659L122.314 62.4687L122.506 62.5448V62.7285L122.333 63.0845L122.593 62.9588L123.006 62.3821L123.161 62.2279L123.036 61.9406L122.997 61.5836L123.045 61.2478L123.189 60.988L123.334 60.8918L123.507 60.8052L123.671 60.6996L123.777 60.5359L123.796 60.3057L123.728 60.181L123.604 60.1229L123.469 60.1134L123.181 60.162L123.037 60.143L122.941 60.0279L122.96 59.8452L123.056 59.6434L123.286 59.3255L123.479 58.9791L123.526 58.6622L123.498 57.8543L123.604 57.4593L123.748 57.0653L123.941 56.7389L124.202 56.5562L125.809 56.3355L126.001 56.2499L126.145 56.1242L126.434 55.7979L126.577 55.6922L126.693 55.6732L126.962 55.7789L127.126 55.7598L127.202 55.5771L127.27 55.1061L127.404 54.5864L127.596 54.1439L127.856 53.8175L128.213 53.6739L129.454 53.7214L129.868 54.0002L130.021 54.0383L130.176 54.0288L130.483 53.9432L131.628 53.9041L131.782 53.9327L132.042 54.1059L132.177 54.1735L132.349 54.164L132.677 54.0678L132.849 54.1249L133.07 54.164L133.532 54.0678L133.763 54.0869L134.532 54.2886L134.783 54.24L134.974 54.0488L135.1 53.7605L135.157 53.4341L135.148 53.357L135.11 53.2039V53.1268L135.129 53.0212L135.206 52.8479L135.234 52.7613L135.253 52.5892L135.244 52.4741L135.138 52.2237L135.061 52.0991L135.004 52.0315L134.984 51.9745L135.051 51.8689L135.138 51.8108L135.562 51.7347L135.61 51.7442L135.63 51.7242L135.639 51.6186L135.523 51.2626L135.543 50.9933L135.639 50.7725L136.024 50.0522L136.169 49.879L136.535 49.6002L136.669 49.447L136.765 49.2347L136.784 49.014L136.669 48.8218L136.506 48.7827L136.102 48.9274L135.948 48.9464L135.418 48.6095L135.938 48.1669L136.074 47.9937L136.246 47.8205L136.17 47.7255L136.112 47.5713L136.035 47.2734L135.795 46.7443L135.717 46.6777L135.641 46.5806L135.621 46.3989L135.66 46.3883L135.727 46.3989L135.804 46.3693L135.833 46.2743L135.823 46.2352L135.804 46.1877L135.785 46.1201L135.776 46.0345L135.717 45.7356L135.564 45.5339L135.362 45.4188L134.448 45.3026L134.294 45.3607L133.995 45.3797L134.072 45.0913L134.544 43.5345L134.612 43.4374L134.804 43.3603L134.861 43.2546L134.91 43.1205L134.976 42.9948L135.131 42.8227L135.293 42.7361L135.476 42.7265L136.323 43.0635L136.631 43.0244L136.967 42.7561L137.112 42.5639L137.217 42.3326L137.198 42.1118L137.055 41.9196L136.862 41.8911L136.719 42.0347L136.583 42.208L136.42 42.2946L136.324 42.2565L136.179 42.0643L136.102 41.9967L136.016 41.9767L135.746 42.0157L135.139 41.8816L134.956 41.8045L134.87 41.6894L134.812 41.5257L134.707 41.3144L134.571 41.1803L134.417 41.0747L134.311 40.93L134.37 40.3438L134.504 40.2477L134.888 40.2762L135.523 40.0555H135.755L135.986 40.0945L136.101 40.084L136.188 40.0269L136.226 39.9118L136.207 39.5369L136.245 39.3732L136.409 39.0943L136.62 38.8926L137.073 38.5842L137.217 38.4215L137.467 38.0181L137.612 37.8935L137.795 37.7868L137.852 37.6822L137.861 37.2587L137.967 36.8637L137.986 36.6524L137.899 36.4697L137.915 36.4623ZM76.0996 72.4824L75.0995 72.2416L72.6353 71.6353L72.3287 71.4526L72.1459 71.2224L72.0306 70.896L71.9048 70.425L71.7706 70.3679V70.5697L71.8382 70.8474L71.8953 71.0206L72.1067 71.3576L72.3478 71.5783L73.5508 72.0409L76.3417 72.6366L76.6599 72.7908L76.8322 72.8288L76.736 72.7517L76.1006 72.4824H76.0996ZM83.654 74.1839L83.5578 74.0487L83.2121 74.0772L83.1349 74.0001L83.0588 73.885L82.8759 73.904L82.5587 74.0487L82.3177 73.866L82.0862 73.8565L81.5566 73.9621L80.4593 73.809L80.3916 73.7319H80.3535L80.2954 73.7995L83.5197 74.3286L83.654 74.1839ZM59.6134 77.8478L59.4886 77.9534L59.2666 78.1932L59.1419 78.2988L59.0362 78.3284L58.9209 78.3474L58.8247 78.3854L58.7867 78.491L58.7285 78.5966L58.5752 78.7213L58.1904 78.9325L58.7782 78.6833L59.5478 78.1161L61.309 76.4431L60.8185 76.7314L59.6155 77.8467L59.6134 77.8478Z" fill="#9BFFF4"/>
</svg>
