<svg width="23" height="25" viewBox="0 0 23 25" fill="none" xmlns="http://www.w3.org/2000/svg">
<path d="M0.616852 11.1412C0.698074 11.3359 0.887611 11.4629 1.09794 11.4629H6.80331L6.80331 24.4794C6.80331 24.7668 7.03658 25 7.32398 25L15.6545 25C15.9419 25 16.1752 24.7668 16.1752 24.4794V11.4629H21.9025C22.1128 11.4629 22.3023 11.3358 22.3835 11.1421C22.4637 10.9474 22.42 10.7235 22.2711 10.5746L11.8839 0.153074C11.7861 0.0552063 11.6538 0 11.5153 0C11.3768 0 11.2445 0.0552063 11.1467 0.152048L0.729313 10.5736C0.580389 10.7225 0.535629 10.9464 0.616852 11.1412Z" fill="#1FFFE5"/>
</svg>
