<?xml version="1.0" standalone="no"?>
<!DOCTYPE svg PUBLIC "-//W3C//DTD SVG 20010904//EN"
 "http://www.w3.org/TR/2001/REC-SVG-20010904/DTD/svg10.dtd">
<svg version="1.0" xmlns="http://www.w3.org/2000/svg"
 width="544.000000pt" height="544.000000pt" viewBox="0 0 544.000000 544.000000"
 preserveAspectRatio="xMidYMid meet">
<metadata>
Created by potrace 1.11, written by Peter Selinger 2001-2013
</metadata>
<g transform="translate(0.000000,544.000000) scale(0.100000,-0.100000)"
fill="#000000" stroke="none">
<path d="M2529 5356 c-2 -2 -38 -7 -79 -10 -41 -4 -82 -9 -90 -11 -8 -2 -35
-6 -60 -9 -120 -16 -394 -87 -510 -133 -8 -4 -17 -7 -20 -8 -3 -1 -18 -7 -35
-15 -16 -7 -50 -22 -75 -32 -84 -37 -215 -103 -218 -110 -2 -5 -8 -8 -13 -8
-5 0 -49 -25 -97 -55 -48 -31 -96 -61 -107 -68 -10 -6 -24 -16 -31 -22 -6 -5
-22 -17 -34 -25 -12 -8 -28 -19 -34 -25 -6 -5 -32 -26 -56 -45 -115 -89 -282
-255 -403 -400 -49 -59 -87 -111 -87 -119 0 -5 -4 -11 -9 -13 -26 -9 -251
-400 -251 -435 0 -7 -4 -13 -10 -13 -5 0 -10 -6 -10 -14 0 -7 -11 -38 -24 -67
-62 -143 -134 -396 -160 -564 -8 -54 -17 -116 -21 -153 -6 -49 -18 -322 -15
-332 0 -3 3 -45 5 -95 5 -95 8 -123 25 -245 11 -74 14 -92 24 -140 11 -50 16
-75 20 -95 27 -129 111 -356 201 -540 180 -370 442 -686 790 -953 41 -31 154
-107 225 -149 101 -61 372 -193 397 -193 4 0 19 -6 33 -13 14 -7 45 -19 70
-26 25 -8 63 -20 85 -27 65 -22 168 -46 290 -70 11 -2 31 -6 45 -9 14 -3 45
-7 70 -11 25 -3 65 -8 90 -11 64 -9 464 -9 530 0 30 4 75 9 100 12 25 2 56 7
70 10 14 3 37 7 52 10 15 3 58 12 95 20 37 9 79 18 93 21 14 2 41 10 60 16 19
7 41 13 48 14 8 1 21 6 30 10 9 4 24 8 32 10 43 9 306 124 411 180 106 57 287
173 329 211 14 13 28 23 32 23 3 0 13 6 20 12 7 7 45 40 83 73 80 67 209 196
273 270 23 28 51 59 61 70 56 62 191 261 251 370 68 122 150 295 150 317 0 8
4 18 9 23 7 8 34 79 36 95 0 3 3 10 6 15 4 6 10 24 14 40 5 17 9 35 11 40 26
89 56 207 68 275 27 152 36 230 41 368 2 62 6 116 9 121 3 4 3 11 0 14 -3 3
-7 56 -9 119 -3 62 -7 129 -9 148 -3 19 -10 73 -16 119 -6 47 -13 88 -16 93
-3 4 -7 22 -9 40 -7 59 -78 315 -104 373 -5 11 -15 36 -22 55 -7 19 -27 68
-45 108 -19 40 -33 73 -32 75 1 4 -64 122 -125 225 -62 104 -196 289 -265 365
-112 124 -253 259 -346 331 -66 52 -174 130 -203 148 -15 10 -35 22 -43 27
-103 68 -289 161 -441 222 -126 50 -368 119 -474 134 -22 4 -47 8 -55 10 -8 2
-37 7 -65 10 -27 3 -66 8 -85 11 -37 6 -465 15 -471 10z m280 -550 c21 -14 49
-42 62 -63 23 -36 23 -46 24 -242 l1 -205 49 -13 c28 -7 61 -14 75 -16 14 -2
32 -7 40 -10 8 -3 38 -13 65 -22 122 -39 276 -130 382 -226 51 -46 143 -160
143 -176 0 -7 4 -13 9 -13 15 0 70 -127 93 -213 13 -50 21 -112 21 -159 0 -67
-3 -82 -26 -117 -38 -58 -96 -85 -165 -78 -96 10 -147 68 -157 182 -18 189
-126 331 -330 432 -66 33 -183 68 -193 58 -8 -8 -9 -1036 -1 -1040 3 -2 21 -7
40 -10 19 -3 52 -11 74 -16 22 -6 47 -13 55 -14 73 -16 287 -117 328 -155 9
-9 25 -21 34 -26 18 -10 134 -120 158 -150 55 -68 135 -208 145 -254 2 -8 9
-31 15 -50 28 -91 30 -261 5 -365 -10 -39 -20 -74 -23 -80 -4 -5 -8 -19 -9
-29 -2 -11 -10 -27 -18 -36 -8 -9 -15 -21 -15 -28 0 -11 -71 -121 -105 -161
-81 -95 -219 -201 -339 -256 -78 -37 -211 -83 -260 -90 -17 -2 -44 -8 -60 -13
l-30 -8 -1 -205 c-2 -222 -3 -231 -61 -285 -76 -71 -201 -53 -261 37 -27 41
-27 41 -28 244 0 112 -3 207 -7 210 -5 6 -27 11 -87 21 -113 19 -323 112 -426
190 -220 164 -352 396 -358 626 -2 91 13 130 69 172 60 46 130 49 196 7 56
-36 78 -75 83 -144 6 -119 53 -224 136 -307 52 -53 156 -129 184 -135 5 -1 24
-7 40 -15 77 -33 150 -54 162 -47 9 5 12 1032 3 1041 -3 3 -21 8 -40 11 -62
11 -117 24 -146 36 -16 6 -38 12 -48 15 -38 7 -210 97 -268 139 -69 50 -161
136 -198 184 -45 59 -109 166 -109 184 -1 9 -5 17 -9 17 -5 0 -9 6 -10 13 0 6
-11 46 -23 87 -28 98 -30 255 -5 355 54 216 213 419 428 546 49 29 95 54 101
55 7 2 40 14 73 28 34 14 70 27 80 29 11 2 37 9 59 15 22 6 55 13 73 16 19 2
37 7 40 11 4 3 7 98 7 210 l1 205 30 41 c56 80 156 103 233 55z"/>
</g>
</svg>
